<svg width="515" height="375" viewBox="0 0 515 375" fill="none" xmlns="http://www.w3.org/2000/svg">
<g clip-path="url(#clip0)">
<path d="M263.021 374.205C278.51 374.205 291.067 361.231 291.067 345.226C291.067 329.222 278.51 316.248 263.021 316.248C247.531 316.248 234.975 329.222 234.975 345.226C234.975 361.231 247.531 374.205 263.021 374.205Z" fill="#6C63FF"/>
<path d="M430.571 372.577C446.261 367.708 462.942 362.631 475.386 351.057C486.505 340.714 494.012 324.919 489.406 309.408C484.809 293.928 471.039 283.607 456.822 278.473C448.759 275.561 440.323 273.946 431.891 272.677C422.724 271.297 413.517 270.167 404.314 269.08C367.05 264.676 329.646 261.986 292.102 261.009C273.576 260.527 255.054 260.539 236.526 260.816C219.979 261.065 202.552 261.058 187.202 253.792C175.265 248.141 164.431 237.861 161.105 224.351C157.265 208.756 164.347 192.875 174.506 181.581C179.861 175.627 186.119 170.617 192.575 166.009C199.579 161.011 206.827 156.367 214.232 152.031C228.817 143.497 244.065 136.234 259.818 130.317C267.589 127.397 275.475 124.879 283.43 122.555C290.147 120.593 296.885 118.628 303.377 115.954C315.927 110.786 327.863 102.032 331.054 87.6801C334.078 74.078 328.979 59.3119 320.04 49.2071C309.697 37.5167 294.103 32.392 279.153 31.5628C262.369 30.6319 245.972 34.9722 230.196 40.4806C213.37 46.3558 196.907 53.1112 179.726 57.87C162.688 62.5843 145.321 65.92 127.782 67.8466C119.196 68.7913 110.35 69.8579 101.713 69.1348C94.4747 68.5286 87.273 66.329 81.9383 61.0209C77.364 56.4695 74.639 50.2143 75.5758 43.6132C75.746 42.4142 77.5087 42.9239 77.3396 44.1156C76.1992 52.151 81.4855 59.5554 87.9997 63.3483C95.5284 67.7319 104.69 67.7379 113.072 67.2365C131.246 66.1023 149.298 63.406 167.039 59.1756C184.472 55.0615 201.282 49.1802 218.074 42.8976C234.021 36.9308 250.325 31.1071 267.362 29.8147C282.145 28.6933 297.696 30.9186 310.574 38.9009C321.893 45.9164 330.216 57.6158 332.868 71.0411C335.459 84.1601 331.87 97.3646 322.259 106.52C312.308 115.998 298.663 120.051 285.947 123.783C269.819 128.517 254.037 134.051 238.761 141.235C223.276 148.498 208.426 157.124 194.374 167.019C180.811 176.596 167.425 188.646 163.135 205.732C161.137 213.69 161.506 222.131 164.85 229.649C167.822 236.333 172.719 241.955 178.423 246.292C192.032 256.639 209.184 258.763 225.622 258.974C244.085 259.212 262.548 258.568 281.017 258.881C318.655 259.519 356.216 261.887 393.701 265.983C403.094 267.01 412.474 268.145 421.843 269.389C430.27 270.508 438.726 271.619 447.011 273.606C461.743 277.139 476.078 283.933 485.234 296.839C489.298 302.433 491.816 309.062 492.518 316.019C493.159 323.279 491.439 330.552 488.262 337.01C481.231 351.305 468.061 360.397 454.074 366.37C446.583 369.569 438.813 371.993 431.057 374.4C429.927 374.75 429.445 372.927 430.571 372.577L430.571 372.577Z" fill="#F6CDF1"/>
<path d="M76.7569 58.9027C84.8384 58.9027 91.3897 52.1335 91.3897 43.7833C91.3897 35.4331 84.8384 28.6639 76.7569 28.6639C68.6754 28.6639 62.124 35.4331 62.124 43.7833C62.124 52.1335 68.6754 58.9027 76.7569 58.9027Z" fill="#F58EE9" fill-opacity="0.4"/>
<path d="M178.272 87.5666C186.354 87.5666 192.905 80.7974 192.905 72.4472C192.905 64.0969 186.354 57.3278 178.272 57.3278C170.191 57.3278 163.64 64.0969 163.64 72.4472C163.64 80.7974 170.191 87.5666 178.272 87.5666Z" fill="#F58EE9" fill-opacity="0.4"/>
<path d="M264.24 30.2388C272.322 30.2388 278.873 23.4696 278.873 15.1194C278.873 6.76919 272.322 0 264.24 0C256.159 0 249.607 6.76919 249.607 15.1194C249.607 23.4696 256.159 30.2388 264.24 30.2388Z" fill="#F58EE9" fill-opacity="0.4"/>
<path d="M317.894 94.4963C325.976 94.4963 332.527 87.7271 332.527 79.3769C332.527 71.0267 325.976 64.2575 317.894 64.2575C309.813 64.2575 303.261 71.0267 303.261 79.3769C303.261 87.7271 309.813 94.4963 317.894 94.4963Z" fill="#F58EE9" fill-opacity="0.4"/>
<path d="M245.34 168.833C253.421 168.833 259.973 162.064 259.973 153.714C259.973 145.364 253.421 138.595 245.34 138.595C237.258 138.595 230.707 145.364 230.707 153.714C230.707 162.064 237.258 168.833 245.34 168.833Z" fill="#F58EE9" fill-opacity="0.4"/>
<path d="M153.274 204.742C161.356 204.742 167.907 197.973 167.907 189.623C167.907 181.272 161.356 174.503 153.274 174.503C145.193 174.503 138.642 181.272 138.642 189.623C138.642 197.973 145.193 204.742 153.274 204.742Z" fill="#F58EE9" fill-opacity="0.4"/>
<path d="M478.246 285.379C486.327 285.379 492.878 278.61 492.878 270.259C492.878 261.909 486.327 255.14 478.246 255.14C470.164 255.14 463.613 261.909 463.613 270.259C463.613 278.61 470.164 285.379 478.246 285.379Z" fill="#F58EE9" fill-opacity="0.4"/>
<path d="M250.827 260.81C258.909 260.81 265.46 254.041 265.46 245.69C265.46 237.34 258.909 230.571 250.827 230.571C242.746 230.571 236.194 237.34 236.194 245.69C236.194 254.041 242.746 260.81 250.827 260.81Z" fill="#F58EE9" fill-opacity="0.4"/>
<path d="M355.696 292.309C363.777 292.309 370.329 285.539 370.329 277.189C370.329 268.839 363.777 262.07 355.696 262.07C347.614 262.07 341.063 268.839 341.063 277.189C341.063 285.539 347.614 292.309 355.696 292.309Z" fill="#F58EE9" fill-opacity="0.4"/>
<path d="M260.017 42.8405C216.184 43.1604 180.294 79.9648 179.672 125.252C179.666 125.67 179.663 128.61 179.664 132.455C179.664 138.093 181.832 143.5 185.69 147.486C189.548 151.473 194.781 153.713 200.237 153.714H200.237C202.942 153.713 205.62 153.162 208.119 152.092C210.618 151.021 212.888 149.452 214.799 147.475C216.711 145.498 218.227 143.151 219.26 140.568C220.293 137.985 220.824 135.217 220.822 132.422C220.819 129.806 220.818 127.996 220.818 127.885C220.817 120.886 222.579 114.007 225.931 107.925C229.283 101.843 234.109 96.7675 239.935 93.1974C245.762 89.6274 252.387 87.6859 259.16 87.564C265.933 87.4422 272.619 89.1441 278.562 92.5023C284.506 95.8606 289.5 100.76 293.055 106.717C296.61 112.675 298.603 119.486 298.837 126.481C299.072 133.476 297.54 140.413 294.392 146.611C291.245 152.808 286.59 158.053 280.886 161.828L280.893 161.837C280.893 161.837 251.61 181.315 242.683 208.036L242.69 208.038C241.121 213.512 240.325 219.192 240.329 224.901C240.329 227.248 240.462 247.783 240.72 264.45C240.811 270.2 243.085 275.684 247.054 279.717C251.022 283.75 256.366 286.01 261.932 286.009H261.932C264.729 286.009 267.498 285.437 270.081 284.327C272.663 283.217 275.007 281.59 276.979 279.54C278.951 277.49 280.511 275.058 281.569 272.383C282.627 269.708 283.163 266.843 283.146 263.953C283.056 248.689 283.008 230.916 283.008 229.626C283.008 213.218 298.327 196.871 310.91 186.21C325.4 173.933 335.827 157.204 340.015 138.332C340.942 134.447 341.453 130.468 341.539 126.468C341.539 115.434 339.426 104.51 335.322 94.3245C331.218 84.1388 325.204 74.8929 317.626 67.1195C310.048 59.3461 301.057 53.1989 291.169 49.0319C281.282 44.865 270.694 42.7608 260.017 42.8405Z" fill="#6C63FF"/>
<path d="M514.274 375H0.725816C0.533643 374.999 0.349535 374.92 0.213845 374.78C0.0781551 374.639 0.00195312 374.449 0.00195312 374.25C0.00195312 374.051 0.0781551 373.861 0.213845 373.72C0.349535 373.58 0.533643 373.5 0.725816 373.5H514.274C514.466 373.5 514.651 373.579 514.787 373.72C514.923 373.86 515 374.051 515 374.25C515 374.449 514.923 374.64 514.787 374.78C514.651 374.921 514.466 375 514.274 375Z" fill="#3F3D56"/>
<path d="M383.167 171.981C393.268 171.981 401.458 163.519 401.458 153.081C401.458 142.644 393.268 134.182 383.167 134.182C373.065 134.182 364.875 142.644 364.875 153.081C364.875 163.519 373.065 171.981 383.167 171.981Z" fill="#2F2E41"/>
<path d="M349.367 366.727H341.892L338.336 336.937H349.368L349.367 366.727Z" fill="#A0616A"/>
<path d="M336.553 364.52H350.968V373.898H327.476C327.476 372.667 327.711 371.447 328.167 370.309C328.623 369.171 329.292 368.137 330.135 367.267C330.977 366.396 331.978 365.705 333.079 365.234C334.18 364.762 335.361 364.52 336.553 364.52Z" fill="#2F2E41"/>
<path d="M407.288 366.727H399.814L396.257 336.937H407.29L407.288 366.727Z" fill="#A0616A"/>
<path d="M394.474 364.52H408.89V373.898H385.397C385.397 372.667 385.632 371.447 386.088 370.309C386.545 369.171 387.213 368.137 388.056 367.267C388.899 366.396 389.899 365.705 391.001 365.234C392.102 364.762 393.282 364.52 394.474 364.52Z" fill="#2F2E41"/>
<path d="M380.387 172.091C388.657 172.091 395.361 165.164 395.361 156.618C395.361 148.073 388.657 141.145 380.387 141.145C372.116 141.145 365.412 148.073 365.412 156.618C365.412 165.164 372.116 172.091 380.387 172.091Z" fill="#A0616A"/>
<path d="M389.312 222.007L396.013 206.1C397.64 202.368 398.106 198.207 397.347 194.19C396.588 190.173 394.642 186.498 391.775 183.673C391.187 183.072 390.561 182.51 389.903 181.991C386.597 179.319 382.523 177.862 378.325 177.852C375.503 177.863 372.716 178.504 370.155 179.729C369.936 179.83 369.722 179.937 369.503 180.044C369.082 180.252 368.668 180.479 368.265 180.712C365.64 182.269 363.407 184.442 361.744 187.055C360.081 189.668 359.036 192.649 358.693 195.756L355.736 221.358C354.992 223.368 328.458 295.941 337.738 351.347C337.836 351.939 338.116 352.482 338.535 352.898C338.954 353.314 339.49 353.581 340.066 353.659L349.474 354.982C350.161 355.079 350.858 354.904 351.425 354.491C351.992 354.078 352.386 353.459 352.529 352.758L368.314 275.013C368.412 274.53 368.665 274.095 369.03 273.777C369.396 273.46 369.855 273.278 370.332 273.262C370.809 273.245 371.279 273.394 371.664 273.685C372.05 273.977 372.33 274.393 372.46 274.868L394.763 356.626C394.922 357.22 395.265 357.744 395.739 358.117C396.214 358.491 396.794 358.693 397.391 358.693C397.569 358.691 397.746 358.675 397.921 358.642L409.414 356.355C410.082 356.226 410.679 355.844 411.089 355.284C411.498 354.723 411.69 354.025 411.627 353.325C409.938 333.865 400.963 236.389 389.312 222.007Z" fill="#2F2E41"/>
<path d="M322.19 169.495C322.086 170.415 322.179 171.347 322.461 172.226C322.744 173.105 323.209 173.909 323.825 174.582C324.441 175.255 325.192 175.78 326.026 176.12C326.859 176.461 327.755 176.608 328.65 176.553L337.02 197.337L343.352 187.639L334.432 169.389C334.242 167.842 333.509 166.421 332.372 165.395C331.236 164.369 329.775 163.81 328.266 163.823C326.757 163.836 325.305 164.421 324.185 165.466C323.065 166.511 322.356 167.945 322.19 169.495L322.19 169.495Z" fill="#A0616A"/>
<path d="M379.557 242.935C380.447 242.825 381.302 242.515 382.064 242.026C382.825 241.538 383.474 240.882 383.963 240.107C384.453 239.331 384.773 238.454 384.899 237.537C385.025 236.62 384.955 235.686 384.694 234.8L402.306 221.546L391.703 217.444L376.604 230.659C375.193 231.21 374.026 232.278 373.326 233.659C372.625 235.04 372.439 236.639 372.803 238.152C373.167 239.665 374.055 240.988 375.3 241.869C376.545 242.751 378.059 243.13 379.557 242.935Z" fill="#A0616A"/>
<path d="M350.847 211.193C350.171 211.193 349.498 211.124 348.836 210.989C347.234 210.674 345.731 209.956 344.461 208.9C343.191 207.843 342.191 206.48 341.551 204.931L329.824 190.156C329.576 189.843 329.395 189.48 329.295 189.09C329.194 188.699 329.175 188.291 329.239 187.893C329.303 187.494 329.449 187.114 329.667 186.779C329.884 186.443 330.169 186.16 330.501 185.947L338.845 180.611C339.153 180.414 339.495 180.282 339.853 180.222C340.211 180.163 340.576 180.177 340.929 180.264C341.281 180.352 341.613 180.51 341.906 180.731C342.199 180.951 342.446 181.23 342.634 181.55L350.9 195.619L366.728 183.532C367.989 182.85 369.445 182.658 370.83 182.993C372.216 183.328 373.439 184.166 374.275 185.356C375.112 186.545 375.506 188.006 375.387 189.471C375.267 190.936 374.641 192.308 373.624 193.336L357.825 208.226C355.969 210.128 353.461 211.194 350.847 211.193Z" fill="#2F2E41"/>
<path d="M393.617 233.414C393.596 233.414 393.574 233.414 393.553 233.414C393.168 233.404 392.789 233.311 392.442 233.141C392.094 232.97 391.785 232.726 391.534 232.424L384.116 223.483C383.864 223.178 383.676 222.822 383.567 222.437C383.457 222.052 383.428 221.648 383.481 221.251C383.534 220.853 383.668 220.472 383.875 220.132C384.081 219.792 384.354 219.502 384.677 219.279L398.567 209.711L385.984 194.08C385.252 192.819 384.983 191.328 385.227 189.88C385.472 188.431 386.212 187.122 387.313 186.191C388.414 185.259 389.803 184.769 391.226 184.808C392.648 184.848 394.009 185.415 395.061 186.405L410.354 201.848C411.558 202.984 412.477 204.405 413.032 205.989C413.587 207.573 413.762 209.272 413.542 210.941C413.321 212.61 412.712 214.199 411.767 215.571C410.821 216.943 409.568 218.058 408.113 218.82L395.614 232.524C395.357 232.805 395.048 233.029 394.704 233.182C394.361 233.335 393.991 233.414 393.617 233.414Z" fill="#2F2E41"/>
<path d="M376.579 200.467C376.46 200.467 376.341 200.459 376.223 200.444C375.706 200.379 375.219 200.162 374.818 199.82C374.417 199.477 374.119 199.023 373.961 198.51L368.387 180.853C368.247 180.406 368.268 179.923 368.447 179.491C368.626 179.06 368.949 178.71 369.358 178.506L369.539 178.418C369.703 178.337 369.866 178.258 370.031 178.181C372.631 176.936 375.46 176.286 378.325 176.277C382.045 176.284 385.681 177.413 388.789 179.526C389.205 179.812 389.496 180.256 389.599 180.762C389.702 181.268 389.608 181.796 389.338 182.231L378.882 199.157C378.637 199.559 378.297 199.89 377.894 200.119C377.491 200.348 377.039 200.468 376.579 200.467Z" fill="#E6E6E6"/>
<path d="M397.587 144.644C400.893 144.644 403.573 141.875 403.573 138.46C403.573 135.044 400.893 132.276 397.587 132.276C394.282 132.276 391.602 135.044 391.602 138.46C391.602 141.875 394.282 144.644 397.587 144.644Z" fill="#2F2E41"/>
<path d="M377.07 131.662C372.865 131.662 368.833 133.388 365.86 136.46C362.887 139.531 361.217 143.697 361.217 148.042V154.971H369.466L373.411 148.042L374.595 154.971H399.629L392.922 148.042C392.922 143.697 391.252 139.531 388.279 136.46C385.306 133.388 381.274 131.662 377.07 131.662Z" fill="#2F2E41"/>
<path d="M400.664 134.224C401.325 132.085 402.696 130.256 404.534 129.059C406.371 127.861 408.559 127.371 410.712 127.675C414.526 128.334 417.542 131.502 419.339 135.04C421.136 138.578 421.966 142.538 423.174 146.334C424.382 150.13 426.095 153.946 429.144 156.404C432.194 158.861 436.874 159.527 439.869 157C439.527 159.634 438.392 162.09 436.624 164.022C434.857 165.953 432.547 167.261 430.02 167.761C427.494 168.261 424.879 167.928 422.546 166.809C420.213 165.689 418.279 163.841 417.019 161.524C415.439 158.618 415.031 155.213 414.562 151.916C414.093 148.618 413.484 145.207 411.598 142.504C409.711 139.801 406.179 138.035 403.181 139.266L400.664 134.224Z" fill="#2F2E41"/>
<path d="M206.046 143.659C200.59 143.658 195.357 141.418 191.499 137.431C187.641 133.444 185.473 128.037 185.473 122.399C185.472 118.554 185.475 115.614 185.481 115.196C185.654 102.025 188.864 89.0873 194.845 77.455C185.019 91.3541 179.616 108.065 179.384 125.276C179.378 125.694 179.375 128.634 179.376 132.479C179.376 138.117 181.544 143.524 185.402 147.511C189.26 151.497 194.493 153.737 199.949 153.738C204.433 153.736 208.794 152.222 212.369 149.426C215.944 146.63 218.538 142.705 219.757 138.247C215.99 141.737 211.106 143.665 206.046 143.659Z" fill="#3F3D56"/>
<path d="M261.411 87.6354C267.719 87.9467 273.86 89.8352 279.306 93.1388C284.752 96.4424 289.341 101.062 292.679 106.602C296.016 112.142 298.002 118.435 298.467 124.943C298.932 131.451 297.861 137.978 295.347 143.963C298.984 139.55 301.657 134.379 303.184 128.801C304.711 123.224 305.056 117.372 304.196 111.644C303.336 105.916 301.29 100.447 298.199 95.6105C295.108 90.7736 291.044 86.6822 286.284 83.6154C281.524 80.5485 276.179 78.5781 270.615 77.8388C265.052 77.0994 259.399 77.6084 254.042 79.3309C248.686 81.0535 243.752 83.9491 239.577 87.8205C235.402 91.6918 232.084 96.4479 229.849 101.764C233.712 97.0693 238.566 93.3537 244.039 90.9041C249.511 88.4544 255.455 87.3361 261.411 87.6354Z" fill="#3F3D56"/>
<path d="M267.741 275.953C262.174 275.955 256.831 273.695 252.863 269.662C248.894 265.628 246.62 260.145 246.529 254.394C246.271 237.727 246.138 217.193 246.138 214.846C246.134 209.136 246.929 203.457 248.499 197.983L248.492 197.981C249.419 195.233 250.538 192.559 251.842 189.979C247.841 195.488 244.657 201.582 242.395 208.06L242.402 208.062C240.832 213.536 240.037 219.216 240.041 224.925C240.041 227.272 240.174 247.807 240.432 264.474C240.523 270.224 242.797 275.708 246.766 279.741C250.734 283.774 256.077 286.034 261.644 286.033C266.233 286.032 270.699 284.494 274.371 281.649C278.043 278.804 280.723 274.805 282.009 270.253C278.109 273.927 273.019 275.961 267.741 275.953Z" fill="#3F3D56"/>
<path d="M77.1522 367.014L84.6266 367.013L88.1829 337.223L77.1504 337.224L77.1522 367.014Z" fill="#FFB8B8"/>
<path d="M99.043 374.185L75.5507 374.186L75.5503 364.808L89.966 364.807C92.3733 364.807 94.682 365.795 96.3842 367.553C98.0865 369.312 99.0429 371.697 99.043 374.185L99.043 374.185Z" fill="#2F2E41"/>
<path d="M50.3256 367.014L57.7999 367.013L61.3563 337.223L50.3237 337.224L50.3256 367.014Z" fill="#FFB8B8"/>
<path d="M72.2158 374.185L48.7236 374.186L48.7232 364.808L63.1389 364.807C65.5461 364.807 67.8548 365.795 69.5571 367.553C71.2593 369.312 72.2157 371.697 72.2158 374.185L72.2158 374.185Z" fill="#2F2E41"/>
<path d="M56.8575 357.852L49.5563 357.455C49.1798 357.435 48.811 357.337 48.4712 357.169C48.1315 357 47.8275 356.763 47.5769 356.472C47.3263 356.181 47.1342 355.841 47.0115 355.473C46.8888 355.105 46.8381 354.715 46.8623 354.326L55.5888 254.497L95.7748 265.701L99.6466 264.61L87.5389 352.986C87.4358 353.65 87.1163 354.259 86.6332 354.711C86.15 355.163 85.5322 355.431 84.8818 355.471L77.0112 355.849C76.6176 355.872 76.2238 355.81 75.8547 355.667C75.4855 355.525 75.149 355.304 74.8664 355.02C74.5838 354.736 74.3613 354.395 74.213 354.018C74.0646 353.64 73.9936 353.235 74.0044 352.828L75.4305 299.787C75.4372 299.541 75.3547 299.302 75.1994 299.117C75.044 298.931 74.827 298.813 74.5911 298.784C74.3552 298.756 74.1176 298.82 73.925 298.963C73.7325 299.107 73.5989 299.32 73.5507 299.56L59.7977 355.51C59.6679 356.173 59.3193 356.77 58.8113 357.198C58.3033 357.626 57.6673 357.859 57.0119 357.856C56.9608 357.856 56.9093 357.855 56.8575 357.852Z" fill="#2F2E41"/>
<path d="M78.4939 172.815C86.7643 172.815 93.4688 165.887 93.4688 157.342C93.4688 148.796 86.7643 141.869 78.4939 141.869C70.2235 141.869 63.519 148.796 63.519 157.342C63.519 165.887 70.2235 172.815 78.4939 172.815Z" fill="#FFB8B8"/>
<path d="M53.5619 202.8L55.2084 239.507L55.8037 252.862C55.8274 253.443 56.0184 254.004 56.3523 254.473C56.6862 254.941 57.1478 255.296 57.6781 255.492L96.2941 269.946C96.6061 270.066 96.9366 270.126 97.2694 270.123C97.6497 270.124 98.0266 270.047 98.3774 269.895C98.7282 269.743 99.0458 269.52 99.3112 269.238C99.5766 268.957 99.7843 268.623 99.9221 268.257C100.06 267.89 100.125 267.499 100.113 267.106L98.5297 201.105C98.4257 195.69 96.4965 190.483 93.0748 186.38C89.653 182.277 84.9531 179.536 79.7852 178.63C79.4117 178.571 79.0317 178.512 78.6517 178.46C75.4471 178.049 72.1944 178.368 69.1222 179.396C66.0501 180.423 63.2332 182.134 60.8697 184.407C58.4224 186.733 56.4993 189.586 55.2366 192.764C53.9738 195.942 53.4021 199.368 53.5619 202.8L53.5619 202.8Z" fill="#CCCCCC"/>
<path d="M114.741 262.621C113.828 262.329 112.993 261.819 112.304 261.134C111.615 260.449 111.091 259.607 110.773 258.675C110.455 257.743 110.352 256.747 110.473 255.767C110.593 254.787 110.934 253.849 111.468 253.029L98.3726 235.037L109.673 234.314L120.376 251.511C121.522 252.426 122.319 253.729 122.628 255.191C122.937 256.653 122.738 258.181 122.066 259.506C121.393 260.832 120.291 261.871 118.952 262.44C117.612 263.01 116.122 263.074 114.741 262.621H114.741Z" fill="#FFB8B8"/>
<path d="M105.534 249.773C105.187 249.628 104.871 249.413 104.605 249.14C104.339 248.868 104.128 248.544 103.984 248.187L84.2556 199.619C83.8685 198.668 83.6665 197.648 83.6612 196.616C83.656 195.585 83.8475 194.562 84.2249 193.607C84.6023 192.652 85.1581 191.783 85.8607 191.05C86.5632 190.317 87.3986 189.734 88.3192 189.335C89.2398 188.936 90.2275 188.728 91.2259 188.723C92.2243 188.719 93.2138 188.917 94.1379 189.308C95.0619 189.699 95.9024 190.274 96.6113 191C97.3201 191.727 97.8835 192.59 98.2692 193.542L117.998 242.11C118.29 242.83 118.293 243.64 118.007 244.363C117.721 245.085 117.17 245.661 116.473 245.964L107.715 249.762C107.37 249.913 107 249.992 106.625 249.994C106.251 249.995 105.88 249.921 105.534 249.773L105.534 249.773Z" fill="#CCCCCC"/>
<path d="M73.6796 248.06L92.6287 210.571C92.9941 209.85 93.6214 209.308 94.3729 209.065C95.1244 208.821 95.9388 208.895 96.6374 209.271L124.142 224.113C124.84 224.491 125.364 225.139 125.6 225.916C125.836 226.692 125.764 227.534 125.4 228.255L106.451 265.745C106.086 266.465 105.458 267.007 104.707 267.251C103.955 267.495 103.141 267.42 102.442 267.044L74.9377 252.202C74.2399 251.825 73.7156 251.176 73.4797 250.4C73.2439 249.623 73.3158 248.782 73.6796 248.06Z" fill="#3F3D56"/>
<path d="M86.3878 230.932C86.0509 230.007 85.5095 229.177 84.8068 228.507C84.1041 227.837 83.2595 227.345 82.3404 227.072C81.4213 226.799 80.4532 226.752 79.5133 226.935C78.5734 227.117 77.6878 227.524 76.9271 228.122L58.7711 215.678L58.7402 227.376L75.9862 237.4C76.9382 238.528 78.2441 239.274 79.6748 239.506C81.1056 239.738 82.5699 239.443 83.8108 238.671C85.0518 237.899 85.9901 236.701 86.4613 235.286C86.9326 233.871 86.9065 232.329 86.3878 230.932Z" fill="#FFB8B8"/>
<path d="M63.4321 233.563L48.5939 221.419C46.9887 220.862 45.5383 219.911 44.3672 218.647C43.196 217.383 42.3391 215.845 41.87 214.164C41.4009 212.483 41.3337 210.709 41.674 208.995C42.0143 207.281 42.7521 205.679 43.824 204.324L57.2967 186.08C58.2329 184.898 59.5496 184.104 61.0061 183.842C62.4625 183.58 63.9615 183.869 65.2289 184.655C66.4964 185.442 67.4476 186.673 67.9088 188.124C68.37 189.575 68.3103 191.15 67.7406 192.559L57.0807 210.577L72.7463 218.254C73.1106 218.432 73.4341 218.689 73.6954 219.006C73.9567 219.323 74.1499 219.694 74.2621 220.094C74.3744 220.494 74.4032 220.915 74.3467 221.327C74.2901 221.74 74.1495 222.135 73.9341 222.487L67.6105 232.828C67.3967 233.177 67.1144 233.475 66.7818 233.704C66.4492 233.933 66.0737 234.088 65.6797 234.157C65.6641 234.16 65.6483 234.163 65.6326 234.165C65.2454 234.226 64.8504 234.203 64.4719 234.1C64.0935 233.996 63.7395 233.814 63.4321 233.563Z" fill="#CCCCCC"/>
<path d="M67.1787 167.703C67.1144 167.508 67.094 167.302 67.1191 167.098C67.1441 166.894 67.214 166.699 67.3232 166.528C67.4325 166.357 67.5782 166.213 67.7494 166.109C67.9205 166.005 68.1124 165.943 68.3105 165.927C68.7161 165.95 69.113 166.057 69.4773 166.243C69.8415 166.428 70.1656 166.688 70.4299 167.007C70.9718 167.653 71.6028 168.213 72.3024 168.668C73.0268 169.046 74.0092 168.992 74.4222 168.273C74.81 167.597 74.5443 166.693 74.3095 165.908C73.7121 163.912 73.3779 161.842 73.3158 159.753C73.2481 157.422 73.5664 154.989 74.8155 153.171C76.4274 150.825 79.3098 149.934 82.0376 149.998C84.7655 150.063 87.449 150.933 90.151 151.483C91.0838 151.673 92.1803 151.77 92.8042 151.023C93.4675 150.229 93.2239 148.943 92.9417 147.871C92.2095 145.088 91.4327 142.211 89.7315 139.963C87.892 137.628 85.2645 136.099 82.378 135.686C79.6068 135.331 76.7937 135.661 74.17 136.648C69.8953 138.041 66.1338 140.748 63.3887 144.409C60.5589 148.302 59.3361 153.194 59.9877 158.016C60.6243 162.216 62.7782 166.011 66.0151 168.634L67.1787 167.703Z" fill="#2F2E41"/>
<path d="M256.842 367.137C252.858 365.344 249.331 362.619 246.541 359.177C243.751 355.734 241.773 351.669 240.764 347.302C239.754 342.934 239.741 338.385 240.725 334.011C241.709 329.638 243.664 325.56 246.434 322.101C243.222 324.524 240.545 327.625 238.582 331.199C236.619 334.773 235.414 338.737 235.047 342.828C234.679 346.92 235.159 351.046 236.453 354.931C237.746 358.817 239.825 362.374 242.551 365.366C245.278 368.358 248.588 370.717 252.264 372.286C255.94 373.855 259.896 374.598 263.871 374.466C267.846 374.334 271.749 373.33 275.319 371.521C278.89 369.711 282.048 367.138 284.582 363.971C280.629 366.957 275.988 368.82 271.121 369.376C266.253 369.931 261.33 369.159 256.842 367.137Z" fill="#3F3D56"/>
</g>
<defs>
<clipPath id="clip0">
<rect width="515" height="375" fill="white"/>
</clipPath>
</defs>
</svg>
