<svg width="658" height="494" viewBox="0 0 658 494" fill="none" xmlns="http://www.w3.org/2000/svg">
<g opacity="0.85" clip-path="url(#clip0)">
<path d="M495.894 151.402H165.885V153.03H495.894V151.402Z" fill="#CCCCCC"/>
<path d="M331.443 0.815216H329.814V152.214H331.443V0.815216Z" fill="#CCCCCC"/>
<path d="M469.598 75.701H191.659V77.3286H469.598V75.701Z" fill="#CCCCCC"/>
<path d="M383.187 268.837C383.191 277.117 380.184 285.117 374.726 291.347C374.237 291.908 373.724 292.446 373.204 292.975H324.749C324.228 292.446 323.715 291.908 323.226 291.347C320.025 287.701 317.64 283.415 316.231 278.773C316.231 278.773 316.239 278.773 316.231 278.765C315.256 275.546 314.762 272.2 314.765 268.837C314.763 267.452 314.847 266.069 315.018 264.694C316.031 256.415 320.038 248.791 326.284 243.258C332.531 237.725 340.586 234.665 348.933 234.654C357.28 234.643 365.343 237.682 371.604 243.198C377.865 248.715 381.892 256.328 382.927 264.605C383.1 266.009 383.187 267.422 383.187 268.837V268.837Z" fill="#2F2E41"/>
<path d="M305.856 292.975H301.67L304.919 291.347L305.017 291.298L305.042 291.347L305.856 292.975Z" fill="#2F2E41"/>
<path d="M334.383 292.975H330.197L331.011 291.347L331.036 291.298L331.134 291.347L334.383 292.975Z" fill="#2F2E41"/>
<path d="M346.58 272.16C353.038 272.16 358.273 266.929 358.273 260.475C358.273 254.021 353.038 248.79 346.58 248.79C340.122 248.79 334.887 254.021 334.887 260.475C334.887 266.929 340.122 272.16 346.58 272.16Z" fill="white"/>
<path d="M345.353 265.559C346.868 264.044 346.86 261.58 345.333 260.054C343.807 258.529 341.34 258.52 339.825 260.035C338.309 261.55 338.318 264.014 339.844 265.54C341.371 267.065 343.837 267.074 345.353 265.559Z" fill="#3F3D56"/>
<path d="M375.965 231.643C376.479 218.985 365.563 208.264 351.582 207.696C337.602 207.129 325.851 216.93 325.337 229.588C324.822 242.245 334.54 245.121 348.521 245.689C362.502 246.256 375.45 244.301 375.965 231.643Z" fill="#6C63FF"/>
<path d="M358.372 282.312C358.555 283.319 358.538 284.351 358.322 285.351C358.106 286.351 357.695 287.299 357.113 288.14C356.53 288.981 355.788 289.7 354.927 290.254C354.067 290.809 353.106 291.188 352.099 291.372C351.091 291.555 350.058 291.538 349.057 291.322C348.057 291.106 347.108 290.695 346.267 290.113C345.425 289.531 344.706 288.789 344.151 287.929C343.596 287.07 343.216 286.109 343.033 285.103L343.03 285.087C342.263 280.854 345.539 279.356 349.775 278.589C354.012 277.823 357.605 278.079 358.372 282.312Z" fill="white"/>
<path d="M526.889 291.345H126.225C122.338 291.345 118.609 292.889 115.86 295.636C113.111 298.383 111.567 302.109 111.567 305.994C111.567 309.879 113.111 313.605 115.86 316.352C118.609 319.099 122.338 320.643 126.225 320.643H526.889C530.776 320.643 534.505 319.099 537.254 316.352C540.003 313.605 541.547 309.879 541.547 305.994C541.547 302.109 540.003 298.383 537.254 295.636C534.505 292.889 530.776 291.345 526.889 291.345V291.345Z" fill="#49AB86"/>
<path d="M496.757 166.018V292.159H495.129V166.018C495.129 161.648 494.958 157.318 494.616 153.03C494.575 152.484 494.534 151.947 494.485 151.402C492.153 125.017 483.433 99.5951 469.077 77.3286C468.727 76.7833 468.377 76.2462 468.019 75.701C453.125 53.0634 432.863 34.4559 409.035 21.534C385.207 8.61217 358.553 1.77669 331.443 1.63577C331.174 1.62763 330.897 1.62762 330.629 1.62762C330.36 1.62762 330.083 1.62763 329.814 1.63577C326.728 1.6439 323.666 1.74156 320.629 1.92874C308.726 2.63898 296.937 4.65024 285.472 7.92654C278.978 9.77978 272.606 12.0357 266.392 14.6812C236.55 27.4153 211.111 48.6347 193.239 75.701C192.88 76.2462 192.53 76.7833 192.18 77.3286C177.825 99.5951 169.105 125.017 166.772 151.402C166.723 151.947 166.683 152.484 166.642 153.03C166.3 157.318 166.129 161.648 166.129 166.018V292.159H164.5V166.018C164.5 161.07 164.714 156.179 165.143 151.345C167.515 124.3 176.536 98.259 191.406 75.5382C213.507 41.5617 247.27 16.8276 286.344 5.98966C297.782 2.82786 309.528 0.907031 321.378 0.260419C324.439 0.0895179 327.523 0.00270508 330.629 -7.62939e-06C372.142 0.0415784 412.14 15.5968 442.761 43.609C473.382 71.6212 492.413 110.065 496.114 151.386C496.538 156.203 496.752 161.081 496.757 166.018Z" fill="#3F3D56"/>
<path d="M284.728 408.595C330.83 409.382 330.823 477.912 284.726 478.693C238.625 477.906 238.633 409.375 284.728 408.595Z" fill="#2F2E41"/>
<path d="M279.4 471.151H268.746V490.228H279.4V471.151Z" fill="#2F2E41"/>
<path d="M300.71 471.151H290.055V490.228H300.71V471.151Z" fill="#2F2E41"/>
<path d="M277.625 487.122C289.138 487.04 289.138 493.859 277.624 493.777C266.112 493.859 266.111 487.04 277.625 487.122Z" fill="#2F2E41"/>
<path d="M298.934 486.678C310.447 486.597 310.447 493.416 298.934 493.333C287.421 493.415 287.421 486.596 298.934 486.678Z" fill="#2F2E41"/>
<path d="M285.616 422.792C301.292 422.862 301.29 446.681 285.615 446.749C269.94 446.679 269.941 422.86 285.616 422.792Z" fill="white"/>
<path d="M285.616 430.778C290.8 430.702 290.8 438.84 285.615 438.764C280.432 438.839 280.432 430.701 285.616 430.778Z" fill="#3F3D56"/>
<path d="M250.707 411.049C244.118 381.027 294.591 369.769 301.401 399.739C304.233 412.412 294.955 417.086 280.956 420.21C266.958 423.334 253.539 423.724 250.707 411.049Z" fill="#6C63FF"/>
<path d="M300.016 314.503C308.186 293.121 318.485 297.055 310.3 318.432C302.13 339.813 291.832 335.879 300.016 314.503Z" fill="#2F2E41"/>
<path d="M238.122 337.32C246.284 291.969 313.974 302.954 307.36 348.55C299.199 393.899 231.509 382.914 238.122 337.32Z" fill="#2F2E41"/>
<path d="M267.414 370.441H256.759V389.518H267.414V370.441Z" fill="#2F2E41"/>
<path d="M288.723 370.441H278.069V389.518H288.723V370.441Z" fill="#2F2E41"/>
<path d="M265.638 386.412C277.151 386.331 277.151 393.149 265.637 393.067C254.125 393.149 254.125 386.33 265.638 386.412Z" fill="#2F2E41"/>
<path d="M286.948 385.969C298.461 385.887 298.461 392.706 286.947 392.623C275.435 392.705 275.434 385.886 286.948 385.969Z" fill="#2F2E41"/>
<path d="M238.72 310.34C232.131 280.317 282.604 269.059 289.414 299.029C292.246 311.702 282.968 316.376 268.97 319.5C254.971 322.624 241.552 323.014 238.72 310.34Z" fill="#6C63FF"/>
<path d="M217.394 319.161C219.873 312.496 252.682 328.046 249.082 334.182C246.604 340.846 213.795 325.296 217.394 319.161Z" fill="#2F2E41"/>
<path d="M395.686 294.879C397.936 292.949 394.772 285.576 388.618 278.413C382.464 271.249 375.651 267.007 373.4 268.937C371.15 270.868 374.314 278.24 380.468 285.404C386.622 292.568 393.435 296.81 395.686 294.879Z" fill="#2F2E41"/>
<path d="M317.578 285.404C323.732 278.24 326.896 270.868 324.646 268.937C322.396 267.007 315.583 271.249 309.429 278.413C303.275 285.576 300.11 292.949 302.361 294.879C304.611 296.81 311.424 292.568 317.578 285.404Z" fill="#2F2E41"/>
<path d="M621.354 110.68H573.307C571.147 110.68 569.076 109.823 567.549 108.296C566.022 106.77 565.164 104.7 565.164 102.542C565.164 100.384 566.022 98.3136 567.549 96.7874C569.076 95.2612 571.147 94.4038 573.307 94.4038V96.0315C571.579 96.0315 569.922 96.7174 568.7 97.9383C567.479 99.1593 566.792 100.815 566.792 102.542C566.792 104.269 567.479 105.925 568.7 107.146C569.922 108.367 571.579 109.052 573.307 109.052H621.354V110.68Z" fill="#49AB86"/>
<path d="M571.678 153.812H523.631C521.472 153.812 519.4 152.955 517.873 151.429C516.346 149.902 515.488 147.832 515.488 145.674C515.488 143.516 516.346 141.446 517.873 139.92C519.4 138.393 521.472 137.536 523.631 137.536V139.164C521.904 139.164 520.246 139.85 519.025 141.07C517.803 142.291 517.117 143.947 517.117 145.674C517.117 147.401 517.803 149.057 519.025 150.278C520.246 151.499 521.904 152.185 523.631 152.185H571.678V153.812Z" fill="#49AB86"/>
<path d="M634.383 196.131V194.503C636.111 194.503 637.768 193.817 638.99 192.596C640.212 191.375 640.898 189.719 640.898 187.992C640.898 186.266 640.212 184.61 638.99 183.389C637.768 182.168 636.111 181.482 634.383 181.482H586.336V179.854H634.383C636.543 179.854 638.615 180.712 640.142 182.238C641.669 183.764 642.527 185.834 642.527 187.992C642.527 190.151 641.669 192.221 640.142 193.747C638.615 195.273 636.543 196.131 634.383 196.131V196.131Z" fill="#49AB86"/>
<path d="M649.856 48.0164V46.3888C651.584 46.3888 653.241 45.7029 654.463 44.4819C655.685 43.261 656.371 41.605 656.371 39.8783C656.371 38.1516 655.685 36.4956 654.463 35.2747C653.241 34.0537 651.584 33.3678 649.856 33.3678H601.809V31.7401H649.856C652.016 31.7401 654.088 32.5976 655.615 34.1238C657.142 35.65 658 37.7199 658 39.8783C658 42.0367 657.142 44.1066 655.615 45.6328C654.088 47.159 652.016 48.0164 649.856 48.0164Z" fill="#49AB86"/>
<path d="M574.936 63.4789H526.889C524.729 63.4789 522.658 62.6215 521.13 61.0953C519.603 59.5691 518.745 57.4991 518.745 55.3407C518.745 53.1824 519.603 51.1124 521.13 49.5862C522.658 48.06 524.729 47.2026 526.889 47.2026V48.8302C525.161 48.8302 523.504 49.5162 522.282 50.7371C521.06 51.9581 520.374 53.6141 520.374 55.3407C520.374 57.0674 521.06 58.7234 522.282 59.9444C523.504 61.1653 525.161 61.8513 526.889 61.8513H574.936V63.4789Z" fill="#49AB86"/>
<path d="M117.604 214.071H69.5569C67.3971 214.071 65.3257 213.214 63.7985 211.688C62.2713 210.161 61.4133 208.091 61.4133 205.933C61.4133 203.775 62.2713 201.705 63.7985 200.178C65.3257 198.652 67.3971 197.795 69.5569 197.795V199.422C67.829 199.422 66.172 200.108 64.9502 201.329C63.7284 202.55 63.042 204.206 63.042 205.933C63.042 207.66 63.7284 209.316 64.9502 210.537C66.172 211.758 67.829 212.444 69.5569 212.444H117.604V214.071Z" fill="#49AB86"/>
<path d="M142.849 241.741V240.113C144.577 240.113 146.234 239.427 147.456 238.206C148.677 236.985 149.364 235.329 149.364 233.603C149.364 231.876 148.677 230.22 147.456 228.999C146.234 227.778 144.577 227.092 142.849 227.092H94.802V225.465H142.849C145.009 225.465 147.08 226.322 148.607 227.848C150.135 229.374 150.993 231.444 150.993 233.603C150.993 235.761 150.135 237.831 148.607 239.357C147.08 240.883 145.009 241.741 142.849 241.741V241.741Z" fill="#49AB86"/>
<path d="M30.2192 150.051L66.0613 150.051C67.6725 150.051 69.2177 150.693 70.3569 151.835C71.4962 152.977 72.1362 154.526 72.1362 156.141C72.1362 157.756 71.4962 159.305 70.3569 160.447C69.2177 161.589 67.6725 162.231 66.0613 162.231L66.0613 161.013C67.3502 161.013 68.5864 160.5 69.4978 159.586C70.4092 158.672 70.9212 157.433 70.9212 156.141C70.9212 154.849 70.4092 153.61 69.4978 152.696C68.5864 151.783 67.3502 151.269 66.0613 151.269L30.2192 151.269L30.2192 150.051Z" fill="#49AB86"/>
<path d="M11.4365 129.59L11.4365 130.808C10.1475 130.808 8.91137 131.321 7.99996 132.235C7.08854 133.148 6.57651 134.387 6.57651 135.679C6.57651 136.972 7.08854 138.211 7.99996 139.124C8.91137 140.038 10.1475 140.551 11.4365 140.551L47.2786 140.551L47.2786 141.769L11.4365 141.769C9.82529 141.769 8.2801 141.128 7.14083 139.986C6.00156 138.844 5.36153 137.295 5.36153 135.679C5.36153 134.064 6.00156 132.515 7.14083 131.373C8.2801 130.231 9.82529 129.59 11.4365 129.59V129.59Z" fill="#49AB86"/>
<path d="M455.225 378.425H407.178C405.018 378.425 402.947 377.568 401.42 376.041C399.893 374.515 399.035 372.445 399.035 370.287C399.035 368.128 399.893 366.058 401.42 364.532C402.947 363.006 405.018 362.149 407.178 362.149V363.776C405.45 363.776 403.793 364.462 402.572 365.683C401.35 366.904 400.663 368.56 400.663 370.287C400.663 372.013 401.35 373.669 402.572 374.89C403.793 376.111 405.45 376.797 407.178 376.797H455.225V378.425Z" fill="#49AB86"/>
<path d="M508.973 422.371V420.743C510.701 420.743 512.358 420.057 513.579 418.836C514.801 417.615 515.488 415.959 515.488 414.233C515.488 412.506 514.801 410.85 513.579 409.629C512.358 408.408 510.701 407.722 508.973 407.722H460.926V406.095H508.973C511.133 406.095 513.204 406.952 514.731 408.478C516.258 410.004 517.116 412.074 517.116 414.233C517.116 416.391 516.258 418.461 514.731 419.987C513.204 421.513 511.133 422.371 508.973 422.371V422.371Z" fill="#49AB86"/>
<path d="M411.25 430.509H363.203C361.043 430.509 358.972 429.652 357.445 428.125C355.917 426.599 355.059 424.529 355.059 422.371C355.059 420.212 355.917 418.143 357.445 416.616C358.972 415.09 361.043 414.233 363.203 414.233V415.86C361.475 415.86 359.818 416.546 358.596 417.767C357.374 418.988 356.688 420.644 356.688 422.371C356.688 424.098 357.374 425.754 358.596 426.974C359.818 428.195 361.475 428.881 363.203 428.881H411.25V430.509Z" fill="#49AB86"/>
<path d="M236.978 426.44V424.812C238.706 424.812 240.363 424.126 241.584 422.905C242.806 421.684 243.493 420.028 243.493 418.302C243.493 416.575 242.806 414.919 241.584 413.698C240.363 412.477 238.706 411.791 236.978 411.791H188.931V410.164H236.978C239.137 410.164 241.209 411.021 242.736 412.547C244.263 414.073 245.121 416.143 245.121 418.302C245.121 420.46 244.263 422.53 242.736 424.056C241.209 425.583 239.137 426.44 236.978 426.44Z" fill="#49AB86"/>
<path d="M416.043 493.987H105.773C105.557 493.987 105.35 493.901 105.197 493.748C105.045 493.596 104.959 493.389 104.959 493.173C104.959 492.957 105.045 492.75 105.197 492.597C105.35 492.445 105.557 492.359 105.773 492.359H416.043C416.259 492.359 416.466 492.445 416.619 492.597C416.772 492.75 416.858 492.957 416.858 493.173C416.858 493.389 416.772 493.596 416.619 493.748C416.466 493.901 416.259 493.987 416.043 493.987Z" fill="#3F3D56"/>
<path d="M151.902 493.36C151.275 494.8 149.174 493.555 149.793 492.131C152.671 485.397 154.635 478.308 155.632 471.053C157.327 458.608 156.37 445.944 152.822 433.894C152.692 433.463 152.561 433.024 152.431 432.592C152.122 431.6 151.796 430.607 151.454 429.63C147.554 418.263 141.255 407.867 132.984 399.145C131.901 398.005 133.628 396.28 134.711 397.419C139.952 402.901 144.428 409.066 148.017 415.746C149.733 418.927 151.25 422.21 152.561 425.577C153.075 426.887 153.555 428.214 154.011 429.541C156.68 437.446 158.271 445.674 158.743 454.004C159.54 467.475 157.199 480.947 151.902 493.36Z" fill="#3F3D56"/>
<path d="M170.551 368.985C167.839 378.905 165.13 388.825 162.423 398.746C159.614 409.016 156.81 419.281 154.011 429.541C153.612 430.997 153.216 432.449 152.822 433.894C152.692 433.463 152.561 433.024 152.431 432.592C152.122 431.6 151.796 430.607 151.454 429.63C151.82 428.279 152.187 426.928 152.561 425.577C153.066 423.73 153.571 421.883 154.076 420.035C158.783 402.799 163.49 385.565 168.197 368.334C168.292 368.031 168.5 367.777 168.779 367.626C169.057 367.474 169.384 367.436 169.689 367.521C169.995 367.606 170.256 367.806 170.416 368.079C170.577 368.352 170.625 368.677 170.551 368.985V368.985Z" fill="#3F3D56"/>
<path d="M120.316 372.54C118.892 375.662 117.455 378.824 116.839 382.199C116.223 385.575 116.503 389.241 118.33 392.146C119.884 394.366 121.959 396.171 124.374 397.402C127.783 399.346 132.217 400.718 135.477 398.535C138.771 396.33 139.121 391.347 137.276 387.84C135.431 384.334 132.002 381.982 128.658 379.854C125.314 377.727 122.693 376.045 120.525 372.728L120.316 372.54Z" fill="#6C63FF"/>
<path d="M178.341 340.728C175.079 341.798 171.779 342.886 168.878 344.722C165.977 346.557 163.47 349.248 162.572 352.559C161.992 355.206 162.07 357.954 162.801 360.563C163.683 364.385 165.678 368.573 169.495 369.489C173.35 370.414 177.253 367.293 178.582 363.56C179.911 359.828 179.317 355.715 178.615 351.816C177.913 347.916 177.374 344.851 178.344 341.009L178.341 340.728Z" fill="#6C63FF"/>
<path d="M119.805 411.181C120.711 414.491 121.633 417.839 123.322 420.826C125.01 423.813 127.574 426.45 130.839 427.513C133.454 428.225 136.205 428.284 138.849 427.685C142.713 426.997 146.998 425.215 148.105 421.452C149.222 417.651 146.299 413.599 142.635 412.085C138.972 410.572 134.831 410.958 130.899 411.463C126.967 411.968 123.876 412.352 120.086 411.192L119.805 411.181Z" fill="#6C63FF"/>
<path d="M129.577 454.313C130.483 457.623 131.405 460.971 133.094 463.958C134.783 466.945 137.347 469.582 140.611 470.645C143.227 471.357 145.977 471.416 148.621 470.817C152.485 470.129 156.771 468.347 157.877 464.584C158.995 460.783 156.071 456.731 152.408 455.217C148.744 453.704 144.604 454.09 140.672 454.595C136.74 455.1 133.649 455.484 129.858 454.324L129.577 454.313Z" fill="#6C63FF"/>
<path d="M183.136 425.83C182.23 429.139 181.308 432.487 179.619 435.475C177.93 438.462 175.366 441.099 172.102 442.162C169.486 442.873 166.736 442.932 164.092 442.334C160.228 441.645 155.942 439.864 154.836 436.1C153.718 432.299 156.642 428.247 160.305 426.734C163.969 425.22 168.109 425.607 172.041 426.112C175.973 426.617 179.064 427.001 182.855 425.84L183.136 425.83Z" fill="#6C63FF"/>
<path d="M192.908 381.884C192.002 385.193 191.08 388.541 189.391 391.529C187.702 394.516 185.139 397.153 181.874 398.216C179.258 398.927 176.508 398.986 173.864 398.388C170 397.699 165.714 395.918 164.608 392.154C163.491 388.353 166.414 384.301 170.078 382.788C173.741 381.274 177.881 381.661 181.814 382.166C185.746 382.671 188.837 383.055 192.627 381.895L192.908 381.884Z" fill="#6C63FF"/>
</g>
<defs>
<clipPath id="clip0">
<rect width="658" height="494" fill="white"/>
</clipPath>
</defs>
</svg>
