<svg width="441" height="187" viewBox="0 0 441 187" fill="none" xmlns="http://www.w3.org/2000/svg">
<rect x="37.1719" y="61" width="295.189" height="65" rx="10" fill="#49AB86"/>
<path d="M73.605 89.896C74.261 89.896 74.805 90.112 75.237 90.544C75.685 90.96 75.909 91.472 75.909 92.08C75.909 92.704 75.693 93.224 75.261 93.64C74.829 94.04 74.277 94.24 73.605 94.24C72.933 94.24 72.381 94.04 71.949 93.64C71.517 93.224 71.301 92.704 71.301 92.08C71.301 91.472 71.517 90.96 71.949 90.544C72.397 90.112 72.949 89.896 73.605 89.896ZM75.837 106.696H71.373L72.117 95.92H75.093L75.837 106.696ZM97.2225 104.8C96.6785 105.472 96.0145 105.984 95.2305 106.336C94.4625 106.688 93.6145 106.864 92.6865 106.864C91.4385 106.864 90.3105 106.592 89.3025 106.048C88.2945 105.52 87.1425 104.576 85.8465 103.216C84.3265 103.024 82.9665 102.536 81.7665 101.752C80.5825 100.968 79.6545 99.96 78.9825 98.728C78.3265 97.48 77.9985 96.104 77.9985 94.6C77.9985 92.952 78.3905 91.472 79.1745 90.16C79.9745 88.832 81.0705 87.792 82.4625 87.04C83.8705 86.288 85.4465 85.912 87.1905 85.912C88.9345 85.912 90.5025 86.288 91.8945 87.04C93.2865 87.792 94.3825 88.832 95.1825 90.16C95.9825 91.472 96.3825 92.952 96.3825 94.6C96.3825 96.552 95.8305 98.264 94.7265 99.736C93.6385 101.208 92.1905 102.232 90.3825 102.808C90.7825 103.224 91.1665 103.52 91.5345 103.696C91.9185 103.888 92.3265 103.984 92.7585 103.984C93.7985 103.984 94.7105 103.568 95.4945 102.736L97.2225 104.8ZM81.9345 94.6C81.9345 95.64 82.1585 96.568 82.6065 97.384C83.0705 98.2 83.7025 98.84 84.5025 99.304C85.3025 99.752 86.1985 99.976 87.1905 99.976C88.1825 99.976 89.0785 99.752 89.8785 99.304C90.6785 98.84 91.3025 98.2 91.7505 97.384C92.2145 96.568 92.4465 95.64 92.4465 94.6C92.4465 93.56 92.2145 92.632 91.7505 91.816C91.3025 91 90.6785 90.368 89.8785 89.92C89.0785 89.456 88.1825 89.224 87.1905 89.224C86.1985 89.224 85.3025 89.456 84.5025 89.92C83.7025 90.368 83.0705 91 82.6065 91.816C82.1585 92.632 81.9345 93.56 81.9345 94.6ZM112.049 90.088V103H108.497V101.464C108.001 102.024 107.409 102.456 106.721 102.76C106.033 103.048 105.289 103.192 104.489 103.192C102.793 103.192 101.449 102.704 100.457 101.728C99.4645 100.752 98.9685 99.304 98.9685 97.384V90.088H102.713V96.832C102.713 98.912 103.585 99.952 105.329 99.952C106.225 99.952 106.945 99.664 107.489 99.088C108.033 98.496 108.305 97.624 108.305 96.472V90.088H112.049ZM115.517 90.088H119.261V103H115.517V90.088ZM117.389 88.288C116.701 88.288 116.141 88.088 115.709 87.688C115.277 87.288 115.061 86.792 115.061 86.2C115.061 85.608 115.277 85.112 115.709 84.712C116.141 84.312 116.701 84.112 117.389 84.112C118.077 84.112 118.637 84.304 119.069 84.688C119.501 85.072 119.717 85.552 119.717 86.128C119.717 86.752 119.501 87.272 119.069 87.688C118.637 88.088 118.077 88.288 117.389 88.288ZM135.384 96.592C135.384 96.64 135.36 96.976 135.312 97.6H125.544C125.72 98.4 126.136 99.032 126.792 99.496C127.448 99.96 128.264 100.192 129.24 100.192C129.912 100.192 130.504 100.096 131.016 99.904C131.544 99.696 132.032 99.376 132.48 98.944L134.472 101.104C133.256 102.496 131.48 103.192 129.144 103.192C127.688 103.192 126.4 102.912 125.28 102.352C124.16 101.776 123.296 100.984 122.688 99.976C122.08 98.968 121.776 97.824 121.776 96.544C121.776 95.28 122.072 94.144 122.664 93.136C123.272 92.112 124.096 91.32 125.136 90.76C126.192 90.184 127.368 89.896 128.664 89.896C129.928 89.896 131.072 90.168 132.096 90.712C133.12 91.256 133.92 92.04 134.496 93.064C135.088 94.072 135.384 95.248 135.384 96.592ZM128.688 92.728C127.84 92.728 127.128 92.968 126.552 93.448C125.976 93.928 125.624 94.584 125.496 95.416H131.856C131.728 94.6 131.376 93.952 130.8 93.472C130.224 92.976 129.52 92.728 128.688 92.728ZM141.452 91.792C141.9 91.168 142.5 90.696 143.252 90.376C144.02 90.056 144.9 89.896 145.892 89.896V93.352C145.476 93.32 145.196 93.304 145.052 93.304C143.98 93.304 143.14 93.608 142.532 94.216C141.924 94.808 141.62 95.704 141.62 96.904V103H137.876V90.088H141.452V91.792ZM154.145 103.192C152.785 103.192 151.561 102.912 150.473 102.352C149.401 101.776 148.561 100.984 147.953 99.976C147.345 98.968 147.041 97.824 147.041 96.544C147.041 95.264 147.345 94.12 147.953 93.112C148.561 92.104 149.401 91.32 150.473 90.76C151.561 90.184 152.785 89.896 154.145 89.896C155.505 89.896 156.721 90.184 157.793 90.76C158.865 91.32 159.705 92.104 160.313 93.112C160.921 94.12 161.225 95.264 161.225 96.544C161.225 97.824 160.921 98.968 160.313 99.976C159.705 100.984 158.865 101.776 157.793 102.352C156.721 102.912 155.505 103.192 154.145 103.192ZM154.145 100.12C155.105 100.12 155.889 99.8 156.497 99.16C157.121 98.504 157.433 97.632 157.433 96.544C157.433 95.456 157.121 94.592 156.497 93.952C155.889 93.296 155.105 92.968 154.145 92.968C153.185 92.968 152.393 93.296 151.769 93.952C151.145 94.592 150.833 95.456 150.833 96.544C150.833 97.632 151.145 98.504 151.769 99.16C152.393 99.8 153.185 100.12 154.145 100.12ZM174.869 103.192C173.797 103.192 172.749 103.064 171.725 102.808C170.701 102.536 169.885 102.2 169.277 101.8L170.525 99.112C171.101 99.48 171.797 99.784 172.613 100.024C173.429 100.248 174.229 100.36 175.013 100.36C176.597 100.36 177.389 99.968 177.389 99.184C177.389 98.816 177.173 98.552 176.741 98.392C176.309 98.232 175.645 98.096 174.749 97.984C173.693 97.824 172.821 97.64 172.133 97.432C171.445 97.224 170.845 96.856 170.333 96.328C169.837 95.8 169.589 95.048 169.589 94.072C169.589 93.256 169.821 92.536 170.285 91.912C170.765 91.272 171.453 90.776 172.349 90.424C173.261 90.072 174.333 89.896 175.565 89.896C176.477 89.896 177.381 90 178.277 90.208C179.189 90.4 179.941 90.672 180.533 91.024L179.285 93.688C178.149 93.048 176.909 92.728 175.565 92.728C174.765 92.728 174.165 92.84 173.765 93.064C173.365 93.288 173.165 93.576 173.165 93.928C173.165 94.328 173.381 94.608 173.813 94.768C174.245 94.928 174.933 95.08 175.877 95.224C176.933 95.4 177.797 95.592 178.469 95.8C179.141 95.992 179.725 96.352 180.221 96.88C180.717 97.408 180.965 98.144 180.965 99.088C180.965 99.888 180.725 100.6 180.245 101.224C179.765 101.848 179.061 102.336 178.133 102.688C177.221 103.024 176.133 103.192 174.869 103.192ZM188.483 89.896C190.483 89.896 192.019 90.376 193.091 91.336C194.163 92.28 194.699 93.712 194.699 95.632V103H191.195V101.392C190.491 102.592 189.179 103.192 187.259 103.192C186.267 103.192 185.403 103.024 184.667 102.688C183.947 102.352 183.395 101.888 183.011 101.296C182.627 100.704 182.435 100.032 182.435 99.28C182.435 98.08 182.883 97.136 183.779 96.448C184.691 95.76 186.091 95.416 187.979 95.416H190.955C190.955 94.6 190.707 93.976 190.211 93.544C189.715 93.096 188.971 92.872 187.979 92.872C187.291 92.872 186.611 92.984 185.939 93.208C185.283 93.416 184.723 93.704 184.259 94.072L182.915 91.456C183.619 90.96 184.459 90.576 185.435 90.304C186.427 90.032 187.443 89.896 188.483 89.896ZM188.195 100.672C188.835 100.672 189.403 100.528 189.899 100.24C190.395 99.936 190.747 99.496 190.955 98.92V97.6H188.387C186.851 97.6 186.083 98.104 186.083 99.112C186.083 99.592 186.267 99.976 186.635 100.264C187.019 100.536 187.539 100.672 188.195 100.672ZM205.719 89.896C206.919 89.896 208.007 90.176 208.983 90.736C209.975 91.28 210.751 92.056 211.311 93.064C211.871 94.056 212.151 95.216 212.151 96.544C212.151 97.872 211.871 99.04 211.311 100.048C210.751 101.04 209.975 101.816 208.983 102.376C208.007 102.92 206.919 103.192 205.719 103.192C203.943 103.192 202.591 102.632 201.663 101.512V103H198.087V85.192H201.831V91.456C202.775 90.416 204.071 89.896 205.719 89.896ZM205.071 100.12C206.031 100.12 206.815 99.8 207.423 99.16C208.047 98.504 208.359 97.632 208.359 96.544C208.359 95.456 208.047 94.592 207.423 93.952C206.815 93.296 206.031 92.968 205.071 92.968C204.111 92.968 203.319 93.296 202.695 93.952C202.087 94.592 201.783 95.456 201.783 96.544C201.783 97.632 202.087 98.504 202.695 99.16C203.319 99.8 204.111 100.12 205.071 100.12ZM227.306 96.592C227.306 96.64 227.282 96.976 227.234 97.6H217.466C217.642 98.4 218.058 99.032 218.714 99.496C219.37 99.96 220.186 100.192 221.162 100.192C221.834 100.192 222.426 100.096 222.938 99.904C223.466 99.696 223.954 99.376 224.402 98.944L226.394 101.104C225.178 102.496 223.402 103.192 221.066 103.192C219.61 103.192 218.322 102.912 217.202 102.352C216.082 101.776 215.218 100.984 214.61 99.976C214.002 98.968 213.698 97.824 213.698 96.544C213.698 95.28 213.994 94.144 214.586 93.136C215.194 92.112 216.018 91.32 217.058 90.76C218.114 90.184 219.29 89.896 220.586 89.896C221.85 89.896 222.994 90.168 224.018 90.712C225.042 91.256 225.842 92.04 226.418 93.064C227.01 94.072 227.306 95.248 227.306 96.592ZM220.61 92.728C219.762 92.728 219.05 92.968 218.474 93.448C217.898 93.928 217.546 94.584 217.418 95.416H223.778C223.65 94.6 223.298 93.952 222.722 93.472C222.146 92.976 221.442 92.728 220.61 92.728ZM233.374 91.792C233.822 91.168 234.422 90.696 235.174 90.376C235.942 90.056 236.822 89.896 237.814 89.896V93.352C237.398 93.32 237.118 93.304 236.974 93.304C235.902 93.304 235.062 93.608 234.454 94.216C233.846 94.808 233.542 95.704 233.542 96.904V103H229.798V90.088H233.374V91.792ZM263.467 89.896C265.083 89.896 266.363 90.376 267.307 91.336C268.267 92.28 268.747 93.704 268.747 95.608V103H265.003V96.184C265.003 95.16 264.787 94.4 264.355 93.904C263.939 93.392 263.339 93.136 262.555 93.136C261.675 93.136 260.979 93.424 260.467 94C259.955 94.56 259.699 95.4 259.699 96.52V103H255.955V96.184C255.955 94.152 255.139 93.136 253.507 93.136C252.643 93.136 251.955 93.424 251.443 94C250.931 94.56 250.675 95.4 250.675 96.52V103H246.931V90.088H250.507V91.576C250.987 91.032 251.571 90.616 252.259 90.328C252.963 90.04 253.731 89.896 254.563 89.896C255.475 89.896 256.299 90.08 257.035 90.448C257.771 90.8 258.363 91.32 258.811 92.008C259.339 91.336 260.003 90.816 260.803 90.448C261.619 90.08 262.507 89.896 263.467 89.896ZM277.311 89.896C279.311 89.896 280.847 90.376 281.919 91.336C282.991 92.28 283.527 93.712 283.527 95.632V103H280.023V101.392C279.319 102.592 278.007 103.192 276.087 103.192C275.095 103.192 274.231 103.024 273.495 102.688C272.775 102.352 272.223 101.888 271.839 101.296C271.455 100.704 271.263 100.032 271.263 99.28C271.263 98.08 271.711 97.136 272.607 96.448C273.519 95.76 274.919 95.416 276.807 95.416H279.783C279.783 94.6 279.535 93.976 279.039 93.544C278.543 93.096 277.799 92.872 276.807 92.872C276.119 92.872 275.439 92.984 274.767 93.208C274.111 93.416 273.551 93.704 273.087 94.072L271.743 91.456C272.447 90.96 273.287 90.576 274.263 90.304C275.255 90.032 276.271 89.896 277.311 89.896ZM277.023 100.672C277.663 100.672 278.231 100.528 278.727 100.24C279.223 99.936 279.575 99.496 279.783 98.92V97.6H277.215C275.679 97.6 274.911 98.104 274.911 99.112C274.911 99.592 275.095 99.976 275.463 100.264C275.847 100.536 276.367 100.672 277.023 100.672ZM278.751 84.976H282.783L278.439 88.432H275.511L278.751 84.976ZM291.26 103.192C290.188 103.192 289.14 103.064 288.116 102.808C287.092 102.536 286.276 102.2 285.668 101.8L286.916 99.112C287.492 99.48 288.188 99.784 289.004 100.024C289.82 100.248 290.62 100.36 291.404 100.36C292.988 100.36 293.78 99.968 293.78 99.184C293.78 98.816 293.564 98.552 293.132 98.392C292.7 98.232 292.036 98.096 291.14 97.984C290.084 97.824 289.212 97.64 288.524 97.432C287.836 97.224 287.236 96.856 286.724 96.328C286.228 95.8 285.979 95.048 285.979 94.072C285.979 93.256 286.212 92.536 286.676 91.912C287.156 91.272 287.844 90.776 288.74 90.424C289.652 90.072 290.724 89.896 291.956 89.896C292.868 89.896 293.772 90 294.668 90.208C295.58 90.4 296.332 90.672 296.924 91.024L295.676 93.688C294.54 93.048 293.3 92.728 291.956 92.728C291.156 92.728 290.556 92.84 290.156 93.064C289.756 93.288 289.556 93.576 289.556 93.928C289.556 94.328 289.772 94.608 290.204 94.768C290.636 94.928 291.324 95.08 292.268 95.224C293.324 95.4 294.188 95.592 294.86 95.8C295.532 95.992 296.116 96.352 296.612 96.88C297.108 97.408 297.356 98.144 297.356 99.088C297.356 99.888 297.116 100.6 296.636 101.224C296.156 101.848 295.452 102.336 294.524 102.688C293.612 103.024 292.524 103.192 291.26 103.192ZM299.186 86.2H303.65L302.906 97.168H299.93L299.186 86.2ZM301.418 103.192C300.762 103.192 300.21 102.984 299.762 102.568C299.33 102.136 299.114 101.616 299.114 101.008C299.114 100.4 299.33 99.896 299.762 99.496C300.194 99.08 300.746 98.872 301.418 98.872C302.09 98.872 302.642 99.08 303.074 99.496C303.506 99.896 303.722 100.4 303.722 101.008C303.722 101.616 303.498 102.136 303.05 102.568C302.618 102.984 302.074 103.192 301.418 103.192Z" fill="white"/>
<path d="M436.423 170.052C434.671 176.547 429.557 181.093 424.222 184.955C423.477 185.494 422.732 186.021 421.987 186.536C421.982 186.538 421.977 186.543 421.971 186.546C421.936 186.57 421.9 186.595 421.866 186.62C421.712 186.726 421.559 186.832 421.406 186.937L421.49 186.977C421.49 186.977 421.572 187.024 421.482 186.984C421.455 186.972 421.427 186.962 421.4 186.949C418.301 185.613 415.147 184.179 412.772 181.676C410.308 179.077 408.869 175.001 410.203 171.587C410.378 171.14 410.6 170.715 410.863 170.32C410.971 170.155 411.088 169.996 411.209 169.841C411.945 168.881 412.907 168.148 413.996 167.717C415.085 167.286 416.261 167.172 417.405 167.389C418.548 167.605 419.617 168.143 420.501 168.947C421.386 169.751 422.054 170.792 422.437 171.964C422.829 168.064 419.82 164.796 416.924 162.386C414.027 159.976 410.735 157.352 410.175 153.474C409.862 151.316 410.565 149.224 411.844 147.545C411.883 147.494 411.923 147.443 411.963 147.394C413.52 145.438 415.71 144.183 418.095 143.878C422.538 143.384 426.852 145.897 430.08 149.199C435.274 154.51 438.414 162.668 436.423 170.052Z" fill="#F6CDF1"/>
<path d="M428.073 161.558C428.925 162.975 429.58 164.519 430.016 166.138C430.384 167.586 430.548 169.084 430.502 170.584C430.383 173.669 429.573 176.679 428.139 179.36C427.059 181.394 425.743 183.274 424.222 184.955C423.477 185.494 422.732 186.021 421.987 186.536C421.981 186.538 421.976 186.543 421.971 186.546C421.935 186.57 421.899 186.595 421.866 186.62C421.712 186.726 421.558 186.832 421.406 186.937C421.406 186.937 421.572 187.024 421.482 186.984C421.455 186.972 421.427 186.962 421.4 186.949C421.678 184.515 421.406 182.046 420.607 179.747C419.807 177.449 418.504 175.388 416.807 173.739C415.105 172.115 413.069 170.943 410.863 170.32C410.971 170.155 411.088 169.996 411.209 169.841C412.061 170.096 412.89 170.431 413.687 170.843C416.534 172.304 418.866 174.707 420.337 177.696C421.656 180.409 422.224 183.469 421.974 186.515C422.101 186.392 422.229 186.266 422.352 186.141C424.707 183.794 426.799 181.101 428.215 177.992C429.443 175.359 430.046 172.444 429.972 169.504C429.857 166.297 428.661 163.327 426.931 160.741C425.034 157.983 422.793 155.515 420.271 153.405C417.729 151.229 414.947 149.393 411.988 147.939C411.921 147.906 411.869 147.846 411.842 147.773C411.815 147.7 411.815 147.618 411.843 147.545C411.863 147.48 411.906 147.425 411.963 147.394C411.993 147.38 412.024 147.374 412.056 147.375C412.088 147.377 412.12 147.386 412.148 147.402C412.513 147.582 412.876 147.764 413.236 147.954C416.234 149.538 419.036 151.514 421.578 153.836C424.034 156.074 426.345 158.63 428.073 161.558Z" fill="white"/>
<path d="M324.649 88.7141C323.266 88.7141 321.914 88.2757 320.764 87.4543C319.613 86.6329 318.717 85.4653 318.188 84.0993C317.658 82.7334 317.52 81.2303 317.79 79.7801C318.06 78.33 318.726 76.998 319.704 75.9525C320.682 74.907 321.928 74.195 323.285 73.9066C324.642 73.6181 326.048 73.7662 327.326 74.332C328.604 74.8978 329.696 75.856 330.465 77.0853C331.233 78.3147 331.644 79.76 331.644 81.2385C331.641 83.2205 330.904 85.1207 329.593 86.5221C328.282 87.9236 326.504 88.7119 324.649 88.7141ZM324.649 74.4714C323.397 74.4714 322.173 74.8683 321.132 75.6119C320.091 76.3555 319.279 77.4123 318.8 78.6489C318.321 79.8854 318.195 81.2461 318.44 82.5588C318.684 83.8715 319.287 85.0772 320.173 86.0236C321.058 86.97 322.186 87.6145 323.414 87.8757C324.642 88.1368 325.915 88.0027 327.072 87.4906C328.229 86.9784 329.218 86.111 329.914 84.9982C330.609 83.8853 330.981 82.577 330.981 81.2385C330.979 79.4444 330.311 77.7244 329.124 76.4557C327.937 75.1871 326.328 74.4734 324.649 74.4714Z" fill="#6C63FF"/>
<path d="M323.989 83.9552C323.84 83.9554 323.694 83.9036 323.574 83.8075L323.566 83.8015L322.001 82.5213C321.854 82.4012 321.758 82.224 321.734 82.0284C321.71 81.8328 321.759 81.635 321.872 81.4785C321.984 81.322 322.15 81.2195 322.333 81.1937C322.516 81.1678 322.701 81.2207 322.847 81.3408L323.861 82.1721L326.258 78.8301C326.314 78.7526 326.383 78.6876 326.462 78.6388C326.541 78.5899 326.628 78.5582 326.719 78.5454C326.81 78.5326 326.902 78.539 326.99 78.5643C327.078 78.5895 327.161 78.633 327.233 78.6924L327.233 78.6926L327.219 78.7147L327.234 78.6926C327.38 78.8127 327.476 78.99 327.5 79.1854C327.524 79.3809 327.475 79.5786 327.363 79.7351L324.544 83.6642C324.478 83.7548 324.394 83.828 324.298 83.8783C324.203 83.9286 324.097 83.9546 323.99 83.9543L323.989 83.9552Z" fill="#6C63FF"/>
<path d="M440.653 186.891H308.565C308.473 186.891 308.385 186.852 308.32 186.782C308.255 186.713 308.219 186.618 308.219 186.52C308.219 186.422 308.255 186.328 308.32 186.258C308.385 186.189 308.473 186.15 308.565 186.15H440.653C440.745 186.15 440.833 186.189 440.898 186.258C440.963 186.328 441 186.422 441 186.52C441 186.618 440.963 186.713 440.898 186.782C440.833 186.852 440.745 186.891 440.653 186.891Z" fill="#3F3D56"/>
<path d="M327.37 85.7615C327.806 86.0433 328.295 86.2195 328.802 86.2777C329.309 86.3358 329.821 86.2745 330.303 86.0981C330.785 85.9216 331.226 85.6343 331.593 85.2564C331.96 84.8785 332.245 84.4192 332.428 83.9107L344.81 84.3512L341.446 78.4839L330.204 78.9652C329.384 78.6932 328.5 78.7519 327.718 79.1303C326.937 79.5086 326.312 80.1803 325.963 81.0181C325.613 81.8558 325.564 82.8014 325.823 83.6756C326.083 84.5499 326.633 85.292 327.37 85.7615V85.7615Z" fill="#FFB8B8"/>
<path d="M397.184 114.427C397.52 114.018 397.768 113.534 397.91 113.011C398.052 112.488 398.086 111.938 398.008 111.4C397.93 110.862 397.742 110.348 397.458 109.896C397.174 109.443 396.801 109.063 396.365 108.781L398.939 95.8285L392.945 98.3404L391.42 110.255C391.026 111.07 390.925 112.011 391.137 112.9C391.348 113.789 391.858 114.564 392.568 115.078C393.279 115.592 394.141 115.81 394.992 115.69C395.842 115.57 396.622 115.121 397.184 114.427Z" fill="#FFB8B8"/>
<path d="M368.179 181.932L363.929 181.931L361.907 164.409L368.18 164.409L368.179 181.932Z" fill="#FFB8B8"/>
<path d="M369.262 186.336L355.558 186.335V186.15C355.558 185.401 355.696 184.66 355.964 183.968C356.232 183.276 356.625 182.648 357.12 182.118C357.615 181.589 358.203 181.169 358.851 180.882C359.498 180.596 360.191 180.448 360.892 180.448H360.892L369.263 180.449L369.262 186.336Z" fill="#2F2E41"/>
<path d="M388.98 181.932L384.73 181.931L382.708 164.409L388.981 164.409L388.98 181.932Z" fill="#FFB8B8"/>
<path d="M390.064 186.336L376.359 186.335V186.15C376.359 185.401 376.497 184.66 376.765 183.968C377.033 183.276 377.426 182.648 377.921 182.118C378.417 181.589 379.005 181.169 379.652 180.882C380.299 180.596 380.993 180.448 381.693 180.448H381.694L390.064 180.449L390.064 186.336Z" fill="#2F2E41"/>
<path d="M368.622 172.782L362.605 172.525C362.195 172.506 361.808 172.315 361.527 171.994C361.247 171.673 361.097 171.247 361.108 170.808L362.803 111.379L362.914 111.336C373.459 107.259 382.182 107.567 389.583 112.277L389.666 112.33L390.681 170.211C390.685 170.433 390.648 170.653 390.571 170.859C390.495 171.065 390.38 171.253 390.235 171.411C390.09 171.569 389.917 171.695 389.725 171.78C389.534 171.866 389.329 171.91 389.121 171.91H384.048C383.687 171.91 383.337 171.775 383.058 171.53C382.778 171.285 382.588 170.943 382.517 170.565L375.606 132.987C375.582 132.857 375.516 132.741 375.419 132.658C375.322 132.576 375.2 132.534 375.076 132.539C374.953 132.544 374.835 132.596 374.744 132.685C374.652 132.775 374.594 132.896 374.579 133.028L370.233 171.317C370.185 171.721 370.001 172.092 369.716 172.362C369.431 172.632 369.064 172.781 368.683 172.783C368.663 172.783 368.642 172.783 368.622 172.782Z" fill="#2F2E41"/>
<path d="M374.475 59.2615C379.178 59.2615 382.99 55.1868 382.99 50.1604C382.99 45.1339 379.178 41.0592 374.475 41.0592C369.772 41.0592 365.96 45.1339 365.96 50.1604C365.96 55.1868 369.772 59.2615 374.475 59.2615Z" fill="#FFB8B8"/>
<path d="M334.444 83.6109C334.349 83.2869 334.349 82.9398 334.443 82.6157L335.326 79.5944C335.422 79.2675 335.61 78.9802 335.864 78.7711C336.118 78.562 336.426 78.4414 336.746 78.4255L347.917 77.8976L366.041 67.9674C366.671 67.7525 367.333 67.6724 367.992 67.7315C368.65 67.7906 369.291 67.9879 369.878 68.312C370.465 68.636 370.986 69.0806 371.412 69.6202C371.838 70.1598 372.16 70.7839 372.36 71.4568C372.56 72.1296 372.634 72.838 372.578 73.5415C372.522 74.245 372.337 74.9297 372.033 75.5566C371.729 76.1834 371.312 76.74 370.807 77.1946C370.301 77.6492 369.717 77.9928 369.087 78.2058L357.98 85.0918C354.609 87.1822 350.643 87.8928 346.818 87.0914L335.633 84.749C335.418 84.7038 335.214 84.6108 335.035 84.476C334.855 84.3411 334.705 84.1675 334.592 83.9663C334.53 83.8545 334.48 83.7352 334.444 83.6109Z" fill="#6C63FF"/>
<path d="M396.82 106.042C396.521 106.157 396.197 106.172 395.89 106.085L393.028 105.271C392.719 105.182 392.442 104.994 392.236 104.732C392.029 104.469 391.904 104.146 391.875 103.804L390.906 91.8972L380.851 72.9661C380.624 72.3033 380.52 71.5991 380.548 70.8937C380.575 70.1883 380.732 69.4956 381.01 68.8552C381.288 68.2147 381.681 67.6391 382.168 67.1613C382.654 66.6835 383.223 66.3127 383.844 66.0704C384.464 65.828 385.123 65.7187 385.783 65.7487C386.443 65.7787 387.091 65.9475 387.69 66.2454C388.288 66.5432 388.827 66.9643 389.273 67.4846C389.719 68.0049 390.066 68.6141 390.292 69.2775L397.201 80.8451C399.299 84.3556 400.132 88.561 399.546 92.679L397.833 104.724C397.8 104.955 397.722 105.177 397.604 105.374C397.485 105.571 397.329 105.739 397.146 105.868C397.044 105.939 396.935 105.998 396.82 106.042Z" fill="#6C63FF"/>
<path d="M365.161 66.3228C366.623 64.6085 368.427 63.2671 370.44 62.3974C372.452 61.5278 374.621 61.1522 376.788 61.2983C376.93 61.3077 377.072 61.3183 377.213 61.3301H377.213C379.266 61.5036 381.261 62.1437 383.064 63.2074C384.868 64.2712 386.438 65.7342 387.669 67.4985C388.921 69.2876 389.802 71.3417 390.252 73.5236C390.702 75.7055 390.711 77.965 390.278 80.1509C388.627 88.5046 389.045 97.1744 391.49 105.303L393.775 112.884C393.848 113.127 393.868 113.384 393.833 113.637C393.799 113.889 393.71 114.13 393.575 114.34C393.439 114.55 393.261 114.725 393.052 114.849C392.844 114.974 392.612 115.046 392.373 115.06L380.695 115.731L377.707 110.213V115.902L363.513 116.718C363.485 116.72 363.456 116.721 363.429 116.721C363.213 116.72 363 116.673 362.803 116.58C362.606 116.488 362.428 116.353 362.282 116.184C362.136 116.014 362.025 115.815 361.954 115.597C361.884 115.379 361.857 115.149 361.874 114.919L363.478 93.6562L361.466 79.2147C361.14 76.9073 361.303 74.5512 361.943 72.32C362.582 70.0888 363.682 68.0394 365.161 66.3228Z" fill="#6C63FF"/>
<path d="M380.392 58.8487C379.604 59.3335 376.488 59.655 376.266 58.7122L376.261 58.6915C376.107 58.0008 376.235 57.2795 376.279 56.5708C376.324 55.8622 376.259 55.0837 375.807 54.5626C374.965 53.5914 373.468 54.1063 372.251 53.8607C371.538 53.6906 370.907 53.2486 370.477 52.6175C370.047 51.9864 369.847 51.2095 369.914 50.432C369.931 50.2847 369.959 50.1372 369.989 49.9899C370.065 49.6165 370.059 49.2293 369.972 48.8587C369.884 48.4882 369.718 48.1443 369.485 47.8542C369.252 47.564 368.96 47.3355 368.631 47.1865C368.302 47.0374 367.944 46.972 367.588 46.9953C366.358 47.0705 365.03 47.4688 364.012 46.495C363.225 45.742 363.033 43.7817 363.379 42.7149C363.96 40.922 367.682 39.9835 369.308 39.4675C371.318 38.8467 373.432 38.7125 375.497 39.0746C377.562 39.4367 379.525 40.2861 381.244 41.5609C382.271 42.3344 383.23 43.3062 383.667 44.5646C384.105 45.8229 383.894 47.4105 382.907 48.2412C383.672 49.1067 384.21 50.1718 384.469 51.3299C384.727 52.4879 384.696 53.6982 384.379 54.8394C383.892 56.5178 381.566 58.127 380.392 58.8487Z" fill="#2F2E41"/>
</svg>
