<svg width="515" height="375" viewBox="0 0 515 375" fill="none" xmlns="http://www.w3.org/2000/svg">
<g clip-path="url(#clip0)">
<path d="M190.886 231.054L84.2769 253.233C81.196 253.87 77.9848 253.276 75.3478 251.579C72.7107 249.882 70.8631 247.223 70.2104 244.183L51.9164 158.52C51.2707 155.479 51.8733 152.309 53.5922 149.706C55.3111 147.104 58.0059 145.28 61.0853 144.636L167.695 122.456C170.775 121.819 173.987 122.414 176.624 124.11C179.261 125.807 181.108 128.467 181.761 131.506L200.055 217.17C200.701 220.211 200.098 223.38 198.379 225.983C196.66 228.586 193.966 230.409 190.886 231.054ZM61.3734 145.985C58.6563 146.553 56.2786 148.162 54.7619 150.459C53.2452 152.755 52.7134 155.552 53.2832 158.235L71.5772 243.899C72.1531 246.581 73.7833 248.928 76.1102 250.425C78.437 251.922 81.2704 252.446 83.9888 251.884L190.598 229.704C193.315 229.136 195.693 227.527 197.21 225.23C198.726 222.934 199.258 220.137 198.688 217.454L180.394 131.79C179.818 129.109 178.188 126.762 175.861 125.265C173.535 123.768 170.701 123.243 167.983 123.805L61.3734 145.985Z" fill="#3F3D56"/>
<path d="M161.071 150.702L107.267 161.896C106.796 162.004 106.301 161.931 105.882 161.693C105.464 161.454 105.152 161.068 105.011 160.611C104.947 160.374 104.932 160.125 104.968 159.881C105.004 159.638 105.09 159.404 105.22 159.194C105.351 158.984 105.524 158.802 105.728 158.66C105.932 158.518 106.163 158.419 106.407 158.368L161.176 146.974C163.315 148.163 162.639 150.376 161.07 150.702L161.071 150.702Z" fill="#CCCCCC"/>
<path d="M163.06 160.017L109.256 171.211C108.785 171.319 108.29 171.246 107.872 171.008C107.453 170.769 107.142 170.383 107 169.927C106.936 169.689 106.921 169.44 106.957 169.196C106.993 168.953 107.079 168.719 107.21 168.509C107.34 168.299 107.513 168.117 107.717 167.975C107.921 167.834 108.152 167.734 108.396 167.683L163.166 156.289C165.304 157.478 164.628 159.691 163.059 160.017L163.06 160.017Z" fill="#CCCCCC"/>
<path d="M98.7573 178.934L82.3367 182.351C81.8004 182.462 81.2415 182.358 80.7824 182.063C80.3234 181.767 80.0018 181.304 79.8883 180.775L75.8038 161.649C75.6914 161.12 75.7962 160.568 76.0954 160.115C76.3946 159.662 76.8637 159.345 77.3998 159.233L93.8203 155.817C94.3566 155.706 94.9154 155.809 95.3744 156.105C95.8334 156.4 96.155 156.863 96.2687 157.392L100.353 176.518C100.466 177.047 100.361 177.599 100.062 178.052C99.7624 178.505 99.2933 178.822 98.7573 178.934V178.934Z" fill="#CCCCCC"/>
<path d="M166.977 179.122L84.8613 196.206C84.3904 196.314 83.8957 196.241 83.477 196.003C83.0583 195.764 82.747 195.378 82.6059 194.922C82.5414 194.684 82.5267 194.435 82.5626 194.192C82.5986 193.948 82.6845 193.714 82.8151 193.504C82.9458 193.294 83.1183 193.112 83.3224 192.971C83.5264 192.829 83.7575 192.729 84.0017 192.678L167.083 175.394C169.221 176.583 168.545 178.796 166.977 179.122Z" fill="#CCCCCC"/>
<path d="M168.967 188.44L86.8515 205.524C86.3807 205.632 85.8859 205.559 85.4673 205.321C85.0486 205.082 84.7372 204.696 84.5961 204.239C84.5316 204.002 84.5169 203.753 84.5529 203.509C84.5889 203.266 84.6748 203.032 84.8054 202.822C84.936 202.612 85.1086 202.43 85.3126 202.288C85.5166 202.146 85.7478 202.047 85.992 201.996L169.073 184.712C171.212 185.901 170.536 188.114 168.967 188.44Z" fill="#CCCCCC"/>
<path d="M170.955 197.752L88.8398 214.835C88.369 214.943 87.8742 214.871 87.4555 214.632C87.0369 214.394 86.7255 214.007 86.5844 213.551C86.5199 213.313 86.5052 213.065 86.5412 212.821C86.5771 212.577 86.663 212.343 86.7937 212.133C86.9243 211.923 87.0969 211.742 87.3009 211.6C87.5049 211.458 87.7361 211.359 87.9803 211.308L171.061 194.023C173.2 195.213 172.524 197.425 170.955 197.752H170.955Z" fill="#CCCCCC"/>
<path d="M172.945 207.069L90.8296 224.153C90.3587 224.26 89.864 224.188 89.4453 223.949C89.0266 223.711 88.7153 223.325 88.5742 222.868C88.5097 222.63 88.4949 222.382 88.5309 222.138C88.5669 221.894 88.6528 221.66 88.7834 221.45C88.914 221.241 89.0866 221.059 89.2906 220.917C89.4946 220.775 89.7258 220.676 89.97 220.625L173.051 203.34C175.19 204.53 174.514 206.743 172.945 207.069Z" fill="#CCCCCC"/>
<path d="M174.934 216.381L92.8183 233.465C92.3475 233.573 91.8527 233.5 91.434 233.262C91.0154 233.023 90.704 232.637 90.5629 232.181C90.4984 231.943 90.4837 231.694 90.5197 231.45C90.5556 231.207 90.6416 230.973 90.7722 230.763C90.9028 230.553 91.0754 230.371 91.2794 230.23C91.4834 230.088 91.7146 229.988 91.9588 229.937L175.04 212.653C177.178 213.842 176.502 216.055 174.934 216.381Z" fill="#CCCCCC"/>
<path d="M188.032 173.734C187.845 174.068 187.686 174.416 187.555 174.775L153.938 183.009L148.09 177.037L137.806 184.571L147.118 196.135C147.87 197.069 148.909 197.737 150.079 198.039C151.249 198.341 152.486 198.26 153.605 197.809L190.083 183.097C191.282 183.968 192.721 184.458 194.209 184.502C195.697 184.546 197.164 184.142 198.413 183.343C199.663 182.545 200.637 181.389 201.205 180.031C201.773 178.673 201.909 177.176 201.594 175.74C201.28 174.304 200.53 172.996 199.444 171.991C198.358 170.986 196.988 170.331 195.515 170.113C194.043 169.895 192.538 170.125 191.202 170.772C189.865 171.419 188.759 172.452 188.032 173.734L188.032 173.734Z" fill="#FFB8B8"/>
<path d="M73.2857 247.005C74.3337 246.686 75.298 246.144 76.1107 245.417C76.9233 244.689 77.5646 243.795 77.9893 242.797C78.414 241.799 78.6118 240.721 78.5688 239.639C78.5258 238.557 78.243 237.498 77.7403 236.536L100.875 173.07L84.8086 170.26L67.1202 233.528C65.5384 234.469 64.3612 235.95 63.8116 237.69C63.262 239.43 63.3781 241.309 64.1381 242.97C64.8981 244.631 66.249 245.959 67.935 246.703C69.6209 247.447 71.5247 247.554 73.2857 247.005Z" fill="#FFB8B8"/>
<path d="M97.9363 184.336L82.0737 178.327C81.6224 178.156 81.2137 177.892 80.8755 177.551C80.5373 177.21 80.2775 176.801 80.1138 176.352C79.9501 175.903 79.8863 175.424 79.9269 174.949C79.9675 174.473 80.1114 174.012 80.3488 173.597L88.6704 159.034C89.5703 156.76 91.3467 154.932 93.6102 153.949C95.8737 152.966 98.4397 152.909 100.746 153.79C103.052 154.672 104.91 156.419 105.913 158.65C106.916 160.881 106.981 163.414 106.096 165.692L102.425 181.959C102.32 182.425 102.114 182.863 101.822 183.243C101.53 183.623 101.158 183.937 100.732 184.162C100.306 184.388 99.836 184.52 99.3535 184.55C98.8711 184.58 98.3877 184.507 97.9363 184.336V184.336Z" fill="#6C63FF"/>
<path d="M133.741 366.159H142.302L146.376 333.562L133.739 333.563L133.741 366.159Z" fill="#FFB8B8"/>
<path d="M131.556 363.4L148.418 363.4H148.419C149.83 363.4 151.228 363.674 152.531 364.207C153.835 364.74 155.02 365.521 156.018 366.506C157.016 367.491 157.807 368.66 158.347 369.947C158.887 371.234 159.165 372.613 159.165 374.006V374.351L131.557 374.352L131.556 363.4Z" fill="#2F2E41"/>
<path d="M85.5502 366.159H94.112L98.1858 333.562L85.5488 333.563L85.5502 366.159Z" fill="#FFB8B8"/>
<path d="M83.3657 363.4L100.228 363.4H100.229C101.64 363.4 103.037 363.674 104.341 364.207C105.645 364.74 106.829 365.521 107.827 366.506C108.825 367.491 109.617 368.66 110.157 369.947C110.697 371.234 110.975 372.613 110.975 374.006V374.351L83.3662 374.352L83.3657 363.4Z" fill="#2F2E41"/>
<path d="M94.5262 353.039H83.6907C83.2654 353.039 82.8445 352.954 82.4536 352.789C82.0626 352.624 81.7097 352.382 81.4163 352.078C81.1228 351.774 80.8948 351.415 80.7461 351.021C80.5975 350.628 80.5312 350.209 80.5514 349.79L85.6982 240.646L86.0225 240.637L138.347 239.291L148.586 348.497C148.625 348.907 148.582 349.32 148.458 349.712C148.334 350.105 148.132 350.47 147.865 350.785C147.597 351.1 147.268 351.359 146.898 351.547C146.528 351.736 146.123 351.85 145.708 351.883L133.537 352.843C132.772 352.904 132.012 352.686 131.399 352.231C130.786 351.776 130.362 351.116 130.208 350.374L114.64 272.633C114.597 272.397 114.471 272.184 114.282 272.032C114.094 271.88 113.857 271.8 113.614 271.807H113.61C113.366 271.801 113.128 271.883 112.94 272.036C112.752 272.189 112.626 272.404 112.586 272.641L97.6099 350.536C97.4681 351.241 97.0834 351.875 96.5212 352.332C95.959 352.788 95.2541 353.038 94.5262 353.039Z" fill="#2F2E41"/>
<path d="M114.375 143.303C123.849 143.303 131.529 135.723 131.529 126.372C131.529 117.021 123.849 109.441 114.375 109.441C104.901 109.441 97.2212 117.021 97.2212 126.372C97.2212 135.723 104.901 143.303 114.375 143.303Z" fill="#FFB8B8"/>
<path d="M108.623 253.436C100.447 253.436 92.0499 251.315 85.0883 245.043C84.7178 244.712 84.4318 244.299 84.2535 243.838C84.0751 243.377 84.0095 242.881 84.062 242.39C84.8071 235.782 88.4216 201.663 86.386 178.872C85.9888 174.615 86.5994 170.325 88.1697 166.34C89.74 162.356 92.2269 158.787 95.4343 155.914C98.5855 153.047 102.369 150.942 106.485 149.766C110.601 148.59 114.938 148.373 119.154 149.135H119.154C119.368 149.172 119.581 149.212 119.795 149.252C133.528 151.876 143.07 164.421 141.99 178.433C140.415 198.879 139.003 226.534 141.22 242.174C141.312 242.814 141.199 243.466 140.896 244.04C140.594 244.613 140.117 245.078 139.534 245.371C134.488 247.887 121.846 253.436 108.623 253.436Z" fill="#6C63FF"/>
<path d="M131.007 185.555C130.604 185.29 130.264 184.943 130.01 184.538C129.756 184.132 129.593 183.676 129.533 183.203L127.443 166.666C126.78 164.314 127.089 161.799 128.301 159.671C129.514 157.543 131.532 155.977 133.913 155.316C136.294 154.654 138.843 154.952 141.002 156.143C143.161 157.334 144.754 159.321 145.43 161.67L152.314 176.946C152.511 177.382 152.609 177.855 152.604 178.332C152.599 178.809 152.489 179.279 152.283 179.711C152.077 180.143 151.779 180.525 151.41 180.833C151.04 181.141 150.608 181.366 150.142 181.494L133.773 185.99C133.308 186.118 132.819 186.146 132.342 186.07C131.864 185.995 131.409 185.819 131.007 185.555Z" fill="#6C63FF"/>
<path d="M108.386 143.064C106.763 143.093 105.149 142.805 103.639 142.216C102.975 141.963 102.285 141.756 101.622 141.503C95.7645 139.269 91.9061 133.112 91.7679 126.916C91.6297 120.72 94.8807 114.706 99.7082 110.742C104.536 106.779 110.788 104.744 117.05 104.274C123.794 103.767 131.388 105.455 135.157 110.999C136.16 112.474 136.861 114.265 136.267 116.046C136.089 116.584 135.771 117.066 135.345 117.444C133.662 118.922 131.984 117.811 130.268 117.713C127.91 117.578 125.792 119.462 125.031 121.669C124.27 123.876 124.605 126.306 125.219 128.557C125.688 129.912 125.983 131.318 126.098 132.745C126.148 133.461 126.011 134.177 125.702 134.826C125.393 135.474 124.921 136.035 124.33 136.453C122.857 137.332 120.922 136.823 119.447 135.945C117.973 135.068 116.699 133.847 115.106 133.201C113.513 132.556 111.374 132.699 110.447 134.131C110.152 134.652 109.953 135.22 109.858 135.81C109.027 139.547 109.218 139.327 108.386 143.064V143.064Z" fill="#2F2E41"/>
<path d="M345.985 119.945H237.033C233.885 119.941 230.867 118.706 228.642 116.509C226.416 114.312 225.164 111.333 225.16 108.226V20.6801C225.164 17.5732 226.416 14.5945 228.642 12.3976C230.867 10.2007 233.885 8.96489 237.033 8.9614H345.985C349.133 8.96489 352.151 10.2007 354.377 12.3976C356.602 14.5945 357.854 17.5732 357.858 20.6801V108.226C357.854 111.333 356.602 114.312 354.377 116.509C352.151 118.706 349.133 119.941 345.985 119.945ZM237.033 10.3401C234.256 10.3432 231.593 11.4336 229.629 13.372C227.665 15.3105 226.56 17.9387 226.557 20.6801V108.226C226.56 110.968 227.665 113.596 229.629 115.534C231.593 117.473 234.256 118.563 237.033 118.566H345.985C348.762 118.563 351.425 117.473 353.389 115.534C355.353 113.596 356.458 110.968 356.461 108.226V20.6801C356.458 17.9387 355.353 15.3105 353.389 13.372C351.425 11.4336 348.762 10.3432 345.985 10.3401H237.033Z" fill="#3F3D56"/>
<path d="M333.601 35.2514H278.615C278.131 35.2611 277.662 35.0893 277.302 34.7708C276.943 34.4523 276.719 34.0108 276.676 33.5356C276.663 33.2896 276.7 33.0435 276.786 32.8123C276.872 32.5811 277.005 32.3697 277.177 32.1909C277.349 32.012 277.555 31.8696 277.785 31.7723C278.014 31.675 278.261 31.6248 278.511 31.6248H334.484C336.327 33.2241 335.204 35.2514 333.6 35.2514L333.601 35.2514Z" fill="#CCCCCC"/>
<path d="M333.601 44.7711H278.615C278.131 44.7808 277.662 44.609 277.302 44.2905C276.943 43.972 276.719 43.5305 276.676 43.0553C276.663 42.8094 276.7 42.5633 276.786 42.3321C276.872 42.1009 277.005 41.8894 277.177 41.7106C277.349 41.5318 277.555 41.3894 277.785 41.2921C278.014 41.1947 278.261 41.1445 278.511 41.1445H334.484C336.327 42.7438 335.204 44.7711 333.6 44.7711L333.601 44.7711Z" fill="#CCCCCC"/>
<path d="M266.727 50.1914H249.946C249.398 50.1909 248.873 49.9758 248.485 49.5934C248.098 49.211 247.88 48.6925 247.879 48.1517V28.6055C247.88 28.0647 248.098 27.5462 248.485 27.1638C248.873 26.7814 249.398 26.5663 249.946 26.5657H266.727C267.275 26.5665 267.8 26.7816 268.188 27.164C268.575 27.5463 268.793 28.0647 268.794 28.6055V48.1517C268.793 48.6925 268.575 49.211 268.188 49.5934C267.801 49.9758 267.275 50.1909 266.727 50.1914Z" fill="#3F3D56"/>
<path d="M333.441 64.2628H249.522C249.038 64.2725 248.57 64.1008 248.21 63.7823C247.85 63.4638 247.626 63.0223 247.583 62.5471C247.57 62.3011 247.607 62.055 247.693 61.8238C247.78 61.5926 247.913 61.3811 248.084 61.2023C248.256 61.0235 248.463 60.8811 248.692 60.7838C248.921 60.6865 249.168 60.6363 249.418 60.6363H334.324C336.168 62.2356 335.045 64.2629 333.441 64.2629V64.2628Z" fill="#CCCCCC"/>
<path d="M333.441 73.7854H249.522C249.038 73.7951 248.57 73.6233 248.21 73.3048C247.85 72.9863 247.626 72.5448 247.583 72.0696C247.57 71.8236 247.607 71.5775 247.693 71.3463C247.78 71.1151 247.913 70.9037 248.084 70.7249C248.256 70.546 248.463 70.4036 248.692 70.3063C248.921 70.209 249.168 70.1588 249.418 70.1588H334.324C336.168 71.7581 335.045 73.7854 333.441 73.7854V73.7854Z" fill="#CCCCCC"/>
<path d="M333.441 83.3017H249.522C249.038 83.3114 248.57 83.1396 248.21 82.8211C247.85 82.5026 247.626 82.0611 247.583 81.5859C247.57 81.3399 247.607 81.0938 247.693 80.8626C247.78 80.6314 247.913 80.4199 248.084 80.2411C248.256 80.0623 248.463 79.9199 248.692 79.8226C248.921 79.7253 249.168 79.6751 249.418 79.6751H334.324C336.168 81.2743 335.045 83.3017 333.441 83.3017V83.3017Z" fill="#CCCCCC"/>
<path d="M333.441 92.8235H249.522C249.038 92.8332 248.57 92.6615 248.21 92.343C247.85 92.0245 247.626 91.583 247.583 91.1078C247.57 90.8618 247.607 90.6157 247.693 90.3845C247.78 90.1533 247.913 89.9418 248.084 89.763C248.256 89.5842 248.463 89.4418 248.692 89.3445C248.921 89.2472 249.168 89.197 249.418 89.197H334.324C336.168 90.7962 335.045 92.8236 333.441 92.8236V92.8235Z" fill="#CCCCCC"/>
<path d="M333.441 102.341H249.522C249.038 102.35 248.57 102.178 248.21 101.86C247.85 101.541 247.626 101.1 247.583 100.625C247.57 100.379 247.607 100.133 247.693 99.9015C247.78 99.6703 247.913 99.4588 248.084 99.28C248.256 99.1012 248.463 98.9588 248.692 98.8615C248.921 98.7641 249.168 98.7139 249.418 98.7139H334.324C336.168 100.313 335.045 102.341 333.441 102.341Z" fill="#CCCCCC"/>
<path d="M322.239 0C323.165 0.00104542 324.053 0.364513 324.707 1.01067C325.362 1.65682 325.73 2.53289 325.731 3.44669V14.4761C325.73 15.3899 325.362 16.266 324.707 16.9121C324.053 17.5583 323.165 17.9217 322.239 17.9228H260.779C259.853 17.9217 258.966 17.5583 258.311 16.9121C257.656 16.266 257.288 15.3899 257.287 14.4761V3.44669C257.288 2.53289 257.656 1.65682 258.311 1.01067C258.966 0.364513 259.853 0.00104542 260.779 0" fill="#6C63FF"/>
<path d="M503.127 228.171H394.175C391.027 228.167 388.01 226.932 385.784 224.735C383.558 222.538 382.306 219.559 382.302 216.452V128.906C382.306 125.799 383.558 122.821 385.784 120.624C388.01 118.427 391.027 117.191 394.175 117.188H503.127C506.275 117.191 509.293 118.427 511.519 120.624C513.744 122.821 514.996 125.799 515 128.906V216.452C514.996 219.559 513.744 222.538 511.519 224.735C509.293 226.932 506.275 228.167 503.127 228.171ZM394.175 118.566C391.398 118.569 388.735 119.66 386.771 121.598C384.807 123.537 383.702 126.165 383.699 128.906V216.452C383.702 219.194 384.807 221.822 386.771 223.76C388.735 225.699 391.398 226.789 394.175 226.792H503.127C505.905 226.789 508.567 225.699 510.531 223.76C512.495 221.822 513.6 219.194 513.603 216.452V128.906C513.6 126.165 512.495 123.537 510.531 121.598C508.567 119.66 505.905 118.569 503.127 118.566H394.175Z" fill="#3F3D56"/>
<path d="M490.743 143.478H435.757C435.273 143.487 434.804 143.315 434.445 142.997C434.085 142.678 433.861 142.237 433.818 141.762C433.805 141.516 433.842 141.27 433.928 141.038C434.014 140.807 434.147 140.596 434.319 140.417C434.491 140.238 434.698 140.096 434.927 139.998C435.156 139.901 435.403 139.851 435.653 139.851H491.626C493.47 141.45 492.346 143.478 490.743 143.478H490.743Z" fill="#3F3D56"/>
<path d="M490.743 152.997H435.757C435.273 153.007 434.804 152.835 434.445 152.517C434.085 152.198 433.861 151.757 433.818 151.281C433.805 151.035 433.842 150.789 433.928 150.558C434.014 150.327 434.147 150.116 434.319 149.937C434.491 149.758 434.698 149.616 434.927 149.518C435.156 149.421 435.403 149.371 435.653 149.371H491.626C493.47 150.97 492.346 152.997 490.743 152.997H490.743Z" fill="#3F3D56"/>
<path d="M423.87 158.418H407.089C406.541 158.417 406.015 158.202 405.628 157.819C405.24 157.437 405.023 156.919 405.022 156.378V136.832C405.023 136.291 405.24 135.772 405.628 135.39C406.015 135.007 406.541 134.792 407.089 134.792H423.87C424.418 134.793 424.943 135.008 425.33 135.39C425.718 135.772 425.936 136.291 425.937 136.832V156.378C425.936 156.919 425.718 157.437 425.331 157.819C424.943 158.202 424.418 158.417 423.87 158.418Z" fill="#CCCCCC"/>
<path d="M490.219 211.497H473.437C472.889 211.496 472.364 211.281 471.977 210.899C471.589 210.516 471.371 209.998 471.371 209.457V198.183C471.371 197.642 471.589 197.123 471.977 196.741C472.364 196.359 472.889 196.143 473.437 196.143H490.219C490.766 196.144 491.292 196.359 491.679 196.741C492.066 197.124 492.284 197.642 492.285 198.183V209.457C492.285 209.998 492.067 210.516 491.679 210.899C491.292 211.281 490.766 211.496 490.219 211.497Z" fill="#3F3D56"/>
<path d="M490.583 172.489H406.664C406.181 172.499 405.712 172.327 405.352 172.008C404.992 171.69 404.768 171.248 404.725 170.773C404.712 170.527 404.749 170.281 404.836 170.05C404.922 169.819 405.055 169.607 405.226 169.428C405.398 169.25 405.605 169.107 405.834 169.01C406.063 168.913 406.31 168.862 406.56 168.862H491.467C493.311 170.462 492.187 172.489 490.583 172.489V172.489Z" fill="#CCCCCC"/>
<path d="M490.583 182.011H406.664C406.181 182.021 405.712 181.849 405.352 181.531C404.992 181.212 404.768 180.771 404.725 180.296C404.712 180.05 404.749 179.804 404.836 179.572C404.922 179.341 405.055 179.13 405.226 178.951C405.398 178.772 405.605 178.63 405.834 178.532C406.063 178.435 406.31 178.385 406.56 178.385H491.467C493.311 179.984 492.187 182.012 490.583 182.012V182.011Z" fill="#CCCCCC"/>
<path d="M490.583 191.528H406.664C406.181 191.537 405.712 191.366 405.352 191.047C404.992 190.729 404.768 190.287 404.725 189.812C404.712 189.566 404.749 189.32 404.836 189.089C404.922 188.858 405.055 188.646 405.226 188.467C405.398 188.288 405.605 188.146 405.834 188.049C406.063 187.951 406.31 187.901 406.56 187.901H491.467C493.311 189.5 492.187 191.528 490.583 191.528V191.528Z" fill="#CCCCCC"/>
<path d="M446.584 201.05H406.664C406.181 201.059 405.712 200.888 405.352 200.569C404.992 200.251 404.768 199.809 404.725 199.334C404.712 199.088 404.749 198.842 404.836 198.611C404.922 198.379 405.055 198.168 405.226 197.989C405.398 197.81 405.605 197.668 405.834 197.571C406.063 197.473 406.31 197.423 406.56 197.423H447.467C449.311 199.022 448.187 201.05 446.584 201.05V201.05Z" fill="#CCCCCC"/>
<path d="M446.584 210.567H406.664C406.181 210.576 405.712 210.405 405.352 210.086C404.992 209.768 404.768 209.326 404.725 208.851C404.712 208.605 404.749 208.359 404.836 208.128C404.922 207.896 405.055 207.685 405.226 207.506C405.398 207.327 405.605 207.185 405.834 207.088C406.063 206.99 406.31 206.94 406.56 206.94H447.467C449.311 208.539 448.187 210.567 446.584 210.567Z" fill="#CCCCCC"/>
<path d="M479.381 126.149H417.921C416.995 126.148 416.108 125.784 415.453 125.138C414.798 124.492 414.43 123.616 414.429 122.702V111.673C414.43 110.759 414.798 109.883 415.453 109.237C416.108 108.591 416.995 108.227 417.921 108.226H479.381C480.307 108.227 481.195 108.591 481.849 109.237C482.504 109.883 482.872 110.759 482.873 111.673V122.702C482.872 123.616 482.504 124.492 481.849 125.138C481.195 125.784 480.307 126.148 479.381 126.149Z" fill="#6C63FF"/>
<path d="M266.792 375H0.698409C0.51318 375 0.335536 374.927 0.204559 374.798C0.0735817 374.669 0 374.493 0 374.311C0 374.128 0.0735817 373.952 0.204559 373.823C0.335536 373.694 0.51318 373.621 0.698409 373.621H266.792C266.978 373.621 267.155 373.694 267.286 373.823C267.417 373.952 267.491 374.128 267.491 374.311C267.491 374.493 267.417 374.669 267.286 374.798C267.155 374.927 266.978 375 266.792 375Z" fill="#3F3D56"/>
<path d="M67.5805 20.5362C70.0749 20.5362 72.097 18.5403 72.097 16.0783C72.097 13.6163 70.0749 11.6205 67.5805 11.6205C65.0861 11.6205 63.064 13.6163 63.064 16.0783C63.064 18.5403 65.0861 20.5362 67.5805 20.5362Z" fill="#F2F2F2"/>
<path d="M67.5805 38.3027C70.0749 38.3027 72.097 36.3069 72.097 33.8448C72.097 31.3828 70.0749 29.387 67.5805 29.387C65.0861 29.387 63.064 31.3828 63.064 33.8448C63.064 36.3069 65.0861 38.3027 67.5805 38.3027Z" fill="#F2F2F2"/>
<path d="M67.5805 56.0692C70.0749 56.0692 72.097 54.0734 72.097 51.6114C72.097 49.1494 70.0749 47.1535 67.5805 47.1535C65.0861 47.1535 63.064 49.1494 63.064 51.6114C63.064 54.0734 65.0861 56.0692 67.5805 56.0692Z" fill="#F2F2F2"/>
<path d="M67.5805 73.8358C70.0749 73.8358 72.097 71.8399 72.097 69.3779C72.097 66.9159 70.0749 64.92 67.5805 64.92C65.0861 64.92 63.064 66.9159 63.064 69.3779C63.064 71.8399 65.0861 73.8358 67.5805 73.8358Z" fill="#F2F2F2"/>
<path d="M86.4379 20.5362C88.9323 20.5362 90.9545 18.5403 90.9545 16.0783C90.9545 13.6163 88.9323 11.6205 86.4379 11.6205C83.9435 11.6205 81.9214 13.6163 81.9214 16.0783C81.9214 18.5403 83.9435 20.5362 86.4379 20.5362Z" fill="#F2F2F2"/>
<path d="M86.4379 38.3027C88.9323 38.3027 90.9545 36.3069 90.9545 33.8448C90.9545 31.3828 88.9323 29.387 86.4379 29.387C83.9435 29.387 81.9214 31.3828 81.9214 33.8448C81.9214 36.3069 83.9435 38.3027 86.4379 38.3027Z" fill="#F2F2F2"/>
<path d="M86.4379 56.0692C88.9323 56.0692 90.9545 54.0734 90.9545 51.6114C90.9545 49.1494 88.9323 47.1535 86.4379 47.1535C83.9435 47.1535 81.9214 49.1494 81.9214 51.6114C81.9214 54.0734 83.9435 56.0692 86.4379 56.0692Z" fill="#F2F2F2"/>
<path d="M86.4379 73.8358C88.9323 73.8358 90.9545 71.8399 90.9545 69.3779C90.9545 66.9159 88.9323 64.92 86.4379 64.92C83.9435 64.92 81.9214 66.9159 81.9214 69.3779C81.9214 71.8399 83.9435 73.8358 86.4379 73.8358Z" fill="#F2F2F2"/>
<path d="M105.295 20.5362C107.789 20.5362 109.811 18.5403 109.811 16.0783C109.811 13.6163 107.789 11.6205 105.295 11.6205C102.8 11.6205 100.778 13.6163 100.778 16.0783C100.778 18.5403 102.8 20.5362 105.295 20.5362Z" fill="#F2F2F2"/>
<path d="M105.295 38.3027C107.789 38.3027 109.811 36.3069 109.811 33.8448C109.811 31.3828 107.789 29.387 105.295 29.387C102.8 29.387 100.778 31.3828 100.778 33.8448C100.778 36.3069 102.8 38.3027 105.295 38.3027Z" fill="#F2F2F2"/>
<path d="M105.295 56.0692C107.789 56.0692 109.811 54.0734 109.811 51.6114C109.811 49.1494 107.789 47.1535 105.295 47.1535C102.8 47.1535 100.778 49.1494 100.778 51.6114C100.778 54.0734 102.8 56.0692 105.295 56.0692Z" fill="#F2F2F2"/>
<path d="M105.295 73.8358C107.789 73.8358 109.811 71.8399 109.811 69.3779C109.811 66.9159 107.789 64.92 105.295 64.92C102.8 64.92 100.778 66.9159 100.778 69.3779C100.778 71.8399 102.8 73.8358 105.295 73.8358Z" fill="#F2F2F2"/>
<path d="M124.152 20.5362C126.646 20.5362 128.668 18.5403 128.668 16.0783C128.668 13.6163 126.646 11.6205 124.152 11.6205C121.657 11.6205 119.635 13.6163 119.635 16.0783C119.635 18.5403 121.657 20.5362 124.152 20.5362Z" fill="#F2F2F2"/>
<path d="M124.152 38.3027C126.646 38.3027 128.668 36.3069 128.668 33.8448C128.668 31.3828 126.646 29.387 124.152 29.387C121.657 29.387 119.635 31.3828 119.635 33.8448C119.635 36.3069 121.657 38.3027 124.152 38.3027Z" fill="#F2F2F2"/>
<path d="M124.152 56.0692C126.646 56.0692 128.668 54.0734 128.668 51.6114C128.668 49.1494 126.646 47.1535 124.152 47.1535C121.657 47.1535 119.635 49.1494 119.635 51.6114C119.635 54.0734 121.657 56.0692 124.152 56.0692Z" fill="#F2F2F2"/>
<path d="M124.152 73.8358C126.646 73.8358 128.668 71.8399 128.668 69.3779C128.668 66.9159 126.646 64.92 124.152 64.92C121.657 64.92 119.635 66.9159 119.635 69.3779C119.635 71.8399 121.657 73.8358 124.152 73.8358Z" fill="#F2F2F2"/>
<path d="M143.009 20.5362C145.504 20.5362 147.526 18.5403 147.526 16.0783C147.526 13.6163 145.504 11.6205 143.009 11.6205C140.515 11.6205 138.493 13.6163 138.493 16.0783C138.493 18.5403 140.515 20.5362 143.009 20.5362Z" fill="#F2F2F2"/>
<path d="M143.009 38.3027C145.504 38.3027 147.526 36.3069 147.526 33.8448C147.526 31.3828 145.504 29.387 143.009 29.387C140.515 29.387 138.493 31.3828 138.493 33.8448C138.493 36.3069 140.515 38.3027 143.009 38.3027Z" fill="#F2F2F2"/>
<path d="M143.009 56.0692C145.504 56.0692 147.526 54.0734 147.526 51.6114C147.526 49.1494 145.504 47.1535 143.009 47.1535C140.515 47.1535 138.493 49.1494 138.493 51.6114C138.493 54.0734 140.515 56.0692 143.009 56.0692Z" fill="#F2F2F2"/>
<path d="M143.009 73.8358C145.504 73.8358 147.526 71.8399 147.526 69.3779C147.526 66.9159 145.504 64.92 143.009 64.92C140.515 64.92 138.493 66.9159 138.493 69.3779C138.493 71.8399 140.515 73.8358 143.009 73.8358Z" fill="#F2F2F2"/>
<path d="M161.866 20.5362C164.361 20.5362 166.383 18.5403 166.383 16.0783C166.383 13.6163 164.361 11.6205 161.866 11.6205C159.372 11.6205 157.35 13.6163 157.35 16.0783C157.35 18.5403 159.372 20.5362 161.866 20.5362Z" fill="#F2F2F2"/>
<path d="M161.866 38.3027C164.361 38.3027 166.383 36.3069 166.383 33.8448C166.383 31.3828 164.361 29.387 161.866 29.387C159.372 29.387 157.35 31.3828 157.35 33.8448C157.35 36.3069 159.372 38.3027 161.866 38.3027Z" fill="#F2F2F2"/>
<path d="M161.866 56.0692C164.361 56.0692 166.383 54.0734 166.383 51.6114C166.383 49.1494 164.361 47.1535 161.866 47.1535C159.372 47.1535 157.35 49.1494 157.35 51.6114C157.35 54.0734 159.372 56.0692 161.866 56.0692Z" fill="#F2F2F2"/>
<path d="M161.866 73.8358C164.361 73.8358 166.383 71.8399 166.383 69.3779C166.383 66.9159 164.361 64.92 161.866 64.92C159.372 64.92 157.35 66.9159 157.35 69.3779C157.35 71.8399 159.372 73.8358 161.866 73.8358Z" fill="#F2F2F2"/>
<path d="M420.278 267.319C422.772 267.319 424.794 265.323 424.794 262.861C424.794 260.399 422.772 258.404 420.278 258.404C417.783 258.404 415.761 260.399 415.761 262.861C415.761 265.323 417.783 267.319 420.278 267.319Z" fill="#F2F2F2"/>
<path d="M420.278 285.086C422.772 285.086 424.794 283.09 424.794 280.628C424.794 278.166 422.772 276.17 420.278 276.17C417.783 276.17 415.761 278.166 415.761 280.628C415.761 283.09 417.783 285.086 420.278 285.086Z" fill="#F2F2F2"/>
<path d="M420.278 302.852C422.772 302.852 424.794 300.856 424.794 298.394C424.794 295.932 422.772 293.937 420.278 293.937C417.783 293.937 415.761 295.932 415.761 298.394C415.761 300.856 417.783 302.852 420.278 302.852Z" fill="#F2F2F2"/>
<path d="M439.135 267.319C441.629 267.319 443.651 265.323 443.651 262.861C443.651 260.399 441.629 258.404 439.135 258.404C436.64 258.404 434.618 260.399 434.618 262.861C434.618 265.323 436.64 267.319 439.135 267.319Z" fill="#F2F2F2"/>
<path d="M439.135 285.086C441.629 285.086 443.651 283.09 443.651 280.628C443.651 278.166 441.629 276.17 439.135 276.17C436.64 276.17 434.618 278.166 434.618 280.628C434.618 283.09 436.64 285.086 439.135 285.086Z" fill="#F2F2F2"/>
<path d="M439.135 302.852C441.629 302.852 443.651 300.856 443.651 298.394C443.651 295.932 441.629 293.937 439.135 293.937C436.64 293.937 434.618 295.932 434.618 298.394C434.618 300.856 436.64 302.852 439.135 302.852Z" fill="#F2F2F2"/>
<path d="M457.992 267.319C460.486 267.319 462.508 265.323 462.508 262.861C462.508 260.399 460.486 258.404 457.992 258.404C455.497 258.404 453.475 260.399 453.475 262.861C453.475 265.323 455.497 267.319 457.992 267.319Z" fill="#F2F2F2"/>
<path d="M457.992 285.086C460.486 285.086 462.508 283.09 462.508 280.628C462.508 278.166 460.486 276.17 457.992 276.17C455.497 276.17 453.475 278.166 453.475 280.628C453.475 283.09 455.497 285.086 457.992 285.086Z" fill="#F2F2F2"/>
<path d="M457.992 302.852C460.486 302.852 462.508 300.856 462.508 298.394C462.508 295.932 460.486 293.937 457.992 293.937C455.497 293.937 453.475 295.932 453.475 298.394C453.475 300.856 455.497 302.852 457.992 302.852Z" fill="#F2F2F2"/>
<path d="M476.849 267.319C479.343 267.319 481.365 265.323 481.365 262.861C481.365 260.399 479.343 258.404 476.849 258.404C474.354 258.404 472.332 260.399 472.332 262.861C472.332 265.323 474.354 267.319 476.849 267.319Z" fill="#F2F2F2"/>
<path d="M476.849 285.086C479.343 285.086 481.365 283.09 481.365 280.628C481.365 278.166 479.343 276.17 476.849 276.17C474.354 276.17 472.332 278.166 472.332 280.628C472.332 283.09 474.354 285.086 476.849 285.086Z" fill="#F2F2F2"/>
<path d="M476.849 302.852C479.343 302.852 481.365 300.856 481.365 298.394C481.365 295.932 479.343 293.937 476.849 293.937C474.354 293.937 472.332 295.932 472.332 298.394C472.332 300.856 474.354 302.852 476.849 302.852Z" fill="#F2F2F2"/>
</g>
<defs>
<clipPath id="clip0">
<rect width="515" height="375" fill="white"/>
</clipPath>
</defs>
</svg>
