<svg width="1439" height="90" viewBox="0 0 1439 90" fill="none" xmlns="http://www.w3.org/2000/svg">
<path d="M0 72.4488V78.1218L158.954 89.9991L234.878 89.9991L0 72.4488Z" fill="#49AB86"/>
<path d="M0 50.8234V56.4966L448.36 89.9988H524.285L0 50.8234Z" fill="#49AB86"/>
<path d="M0.00195312 7.57452L0.00195312 13.2475L1027.18 89.9999H1103.1L0.00195312 7.57452Z" fill="#49AB86"/>
<path d="M0.00146484 21.9912V27.6642L834.239 89.9999H910.164L0.00146484 21.9912Z" fill="#49AB86"/>
<path d="M0.00146484 58.0318L0.00146484 63.705L351.896 89.9989H427.816L0.00146484 58.0318Z" fill="#49AB86"/>
<path d="M0.00195312 29.1993L0.00195312 34.8723L737.773 89.9997H813.694L0.00195312 29.1993Z" fill="#49AB86"/>
<path d="M863.337 0.00012207L787.412 0.00012207L1438.8 48.6728V42.9998L863.337 0.00012207Z" fill="#49AB86"/>
<path d="M1056.27 0L980.351 0L1438.8 34.256V28.5828L1056.27 0Z" fill="#49AB86"/>
<path d="M1249.21 0.000305176L1173.29 0.000305176L1438.8 19.8395V14.1665L1249.21 0.000305176Z" fill="#49AB86"/>
<path d="M91.5814 6.10352e-05L15.6606 6.10352e-05L1220.12 89.9991H1296.04L91.5814 6.10352e-05Z" fill="#49AB86"/>
<path d="M188.053 6.10352e-05L112.128 6.10352e-05L1316.59 89.9991H1392.51L188.053 6.10352e-05Z" fill="#49AB86"/>
<path d="M380.987 6.10352e-05L305.066 6.10352e-05L1438.8 84.7143V79.0414L380.987 6.10352e-05Z" fill="#49AB86"/>
<path d="M573.928 6.10352e-05L498.004 6.10352e-05L1438.8 70.2977V64.6247L573.928 6.10352e-05Z" fill="#49AB86"/>
<path d="M670.393 0.00012207L594.473 0.00012207L1438.8 63.0894V57.4165L670.393 0.00012207Z" fill="#49AB86"/>
<path d="M0 79.6573V85.3303L62.487 89.9993H138.408L0 79.6573Z" fill="#49AB86"/>
<path d="M1438.8 5.4228V0.000244141L1366.23 0.000244141L1438.8 5.4228Z" fill="#49AB86"/>
<rect x="420" y="12" width="600" height="60" rx="20" fill="#F7F7F7"/>
</svg>
