<svg width="339" height="85" viewBox="0 0 339 85" fill="none" xmlns="http://www.w3.org/2000/svg">
<path d="M0.0710449 67.251L0.0480676 72.5169L37.3813 83.7052L55.2365 83.7831L0.0710449 67.251Z" fill="#6C63FF"/>
<path d="M0.158936 47.1772L0.135957 52.4434L105.442 84.0022L123.297 84.0801L0.158936 47.1772Z" fill="#6C63FF"/>
<path d="M0.33374 7.03027L0.310763 12.2962L241.563 84.5961L259.417 84.674L0.33374 7.03027Z" fill="#6C63FF"/>
<path d="M0.275635 20.4126L0.252658 25.6786L196.189 84.3981L214.044 84.476L0.275635 20.4126Z" fill="#6C63FF"/>
<path d="M0.129639 53.8684L0.10666 59.1346L82.7555 83.9032L100.61 83.9811L0.129639 53.8684Z" fill="#6C63FF"/>
<path d="M0.246582 27.1038L0.223605 32.3697L173.503 84.2991L191.357 84.377L0.246582 27.1038Z" fill="#6C63FF"/>
<path d="M203.396 0.886014L185.541 0.808105L338.531 46.6572L338.554 41.3912L203.396 0.886014Z" fill="#6C63FF"/>
<path d="M248.769 1.08376L230.915 1.00586L338.589 33.2746L338.612 28.0085L248.769 1.08376Z" fill="#6C63FF"/>
<path d="M294.143 1.28201L276.288 1.2041L338.648 19.8924L338.671 14.6264L294.143 1.28201Z" fill="#6C63FF"/>
<path d="M21.9017 0.0940182L4.04736 0.0161133L286.936 84.7941L304.79 84.872L21.9017 0.0940182Z" fill="#6C63FF"/>
<path d="M44.5887 0.192899L26.7334 0.11499L309.623 84.893L327.477 84.9709L44.5887 0.192899Z" fill="#6C63FF"/>
<path d="M89.9616 0.390893L72.1072 0.312988L338.385 80.1128L338.408 74.8469L89.9616 0.390893Z" fill="#6C63FF"/>
<path d="M135.336 0.588895L117.48 0.510986L338.443 66.7305L338.466 61.4646L135.336 0.588895Z" fill="#6C63FF"/>
<path d="M158.022 0.688012L140.167 0.610107L338.473 60.0395L338.496 54.7735L158.022 0.688012Z" fill="#6C63FF"/>
<path d="M0.041748 73.9421L0.0187708 79.2081L14.695 83.6062L32.5494 83.6841L0.041748 73.9421Z" fill="#6C63FF"/>
<path d="M338.707 6.51008L338.729 1.47657L321.662 1.4021L338.707 6.51008Z" fill="#6C63FF"/>
</svg>
